<svg version="1.2" xmlns="http://www.w3.org/2000/svg" viewBox="0 0 2000 2000" width="2000" height="2000">
	<title>5795-ai</title>
	<style>
		.s0 { fill: #1c468a } 
		.s1 { fill: #bc3f3f } 
		.s2 { fill: #ffb27d } 
		.s3 { fill: #a02d2d } 
		.s4 { fill: #2c3a64 } 
		.s5 { fill: #ed985f } 
		.s6 { fill: #ef9e67 } 
		.s7 { fill: #163560 } 
		.s8 { fill: #f1a34f } 
		.s9 { fill: #d86713 } 
		.s10 { fill: #233862 } 
		.s11 { fill: #739af0 } 
		.s12 { fill: #5885d6 } 
		.s13 { fill: #2b478b } 
		.s14 { fill: #e58638 } 
		.s15 { fill: #2f5196 } 
		.s16 { fill: #466aa5 } 
		.s17 { fill: #f99746 } 
		.s18 { fill: #ed7d2b } 
		.s19 { fill: #b56f40 } 
		.s20 { fill: #99592e } 
		.s21 { fill: #ee9849 } 
		.s22 { fill: #b64c41 } 
		.s23 { fill: #aa413e } 
		.s24 { fill: #5fabb7 } 
		.s25 { fill: #a53d38 } 
		.s26 { fill: #c45446 } 
		.s27 { fill: #912f2f } 
		.s28 { fill: #e8945b } 
		.s29 { fill: #ffffff } 
		.s30 { fill: #27437c } 
		.s31 { fill: #d9935c } 
		.s32 { fill: #4a75cb } 
		.s33 { fill: #cb7d45 } 
		.s34 { fill: #ffa412 } 
		.s35 { fill: #6292e8 } 
		.s36 { fill: #e2915a } 
		.s37 { fill: #e9f3fe } 
		.s38 { fill: #22407a } 
		.s39 { fill: #d9e9f9 } 
		.s40 { fill: #ba4c43 } 
		.s41 { fill: #c65447 } 
		.s42 { fill: #283250 } 
		.s43 { fill: #05204c } 
		.s44 { fill: #f4a671 } 
		.s45 { fill: #e2af64 } 
		.s46 { fill: #edbd77 } 
		.s47 { fill: #ffcf83 } 
		.s48 { fill: #fff2e9 } 
		.s49 { fill: #122749 } 
		.s50 { fill: #ed975d } 
		.s51 { fill: #af4c09 } 
		.s52 { fill: #74acbe } 
	</style>
	<g id="Слой 1">
		<g id="&lt;Group&gt;">
			<g id="&lt;Group&gt;">
				<g id="&lt;Group&gt;">
					<path id="&lt;Path&gt;" class="s0" d="m1550.4 749.8l-0.5-0.1 17.3-93.9 2.4-0.7z"/>
				</g>
				<path id="&lt;Path&gt;" class="s1" d="m1593.4 653.5c0 0 18.6-4.4 25.4 1.2 8.3 6.8 26 48.6 25.8 53.6-0.1 1.9-7.8 1.6-10.6-0.8-14-12.3-35.2-44.4-40.6-54z"/>
				<path id="&lt;Path&gt;" class="s2" d="m1628.2 964.5l-7.2 2.2c0 0-28-43.9-29.6-81.3-0.3-6.6 0.3-13 2.1-18.9 0 0-0.2-1.7-0.6-4.7q-0.2-2.2-0.5-5.1c-0.7-5.7-1.6-13.6-2.7-22.5-2.4-20.5-8.4-74.1-10.9-93.4l40.3-6.5c0 0 8.7 18.5 10 50 0.3 4.2 0.5 8.7 0.6 13.7 0.4 15.1-0.6 33.7-4.6 54.9q-1.5 8.1-3.6 16.7c-1 4.2-1.5 10-1.5 16.7-0.2 30.4 8.2 78.2 8.2 78.2z"/>
				<path id="&lt;Path&gt;" class="s2" d="m1613.7 735.4c-12.3 4.9-45.2-1.1-45.2-1.1 0 0-13.2 17.9-8.6 43.7 2.3 12.6 10.1 66.4 13.4 82.2 1.3 5.7 2.2 9.8 2.6 11.4q0 0 0 0c0.1 0.5 0 1-0.2 1.4-1.8 4.1-3.2 8.2-4.2 12.4-10.2 41.2 12.6 87.8 12.6 87.8l4.2-2.3c0 0 3.4-55.2 8.5-80 0.9-4.2-0.6-11.1 0.3-13.1 2.8-6 3.1-20.4 4.7-31.5 3.1-21.1 4.5-42.3 5-63.1z"/>
				<path id="&lt;Path&gt;" class="s1" d="m1608.8 978.9h-35.4c0 0-1-5.5 1-9.5 5.6-11.3-0.5-22.8-1.2-27.6 2.3 2.3 11.7 0.7 16.8 0 0.6 1-3.7 19.3 5.5 29.3 1.9 2.1 12.6 1.1 13.3 7.8z"/>
				<path id="&lt;Path&gt;" class="s1" d="m1648.7 978.9h-35.3c0 0-1-5.5 1-9.5 5.6-11.3-5.2-21.3-7.4-28.8 2.3 2.3 12.3 0.1 17.4-0.6 0.7 1 1.9 21.1 11 31.1 1.9 2.1 12.6 1.1 13.3 7.8z"/>
				<path id="&lt;Path&gt;" class="s3" d="m1632.7 919.8c0 0-24.9 6.2-36.7-0.7q-0.5-0.3-1.1-0.7l2.6-184.1v-2.3l21.6 2.3c0 0 5 11.5 8.4 24.3 1.3 5 2.4 10.1 2.9 14.8 1.7 17 2.3 146.4 2.3 146.4z"/>
				<path id="&lt;Path&gt;" class="s1" d="m1627.5 758.6c-5.1 6.2-12.3 13.4-14.7 16.9-10.3 15.2-15.6 117.5-16.8 143.6-0.2 3.9-0.2 6.1-0.2 6.1-11.1 9.9-36.9 1.2-36.9 1.2-11-82 0.5-143.2 0-160.2-0.5-17 9.6-31.9 9.6-31.9h50.6c0 0 5 11.5 8.4 24.3z"/>
				<path id="&lt;Path&gt;" class="s2" d="m1616.4 669.7c-3.3 3-7.6 5.6-13.2 7.6-20.7 7.6-31.1-9.4-35.7-21.4 2.7-2.1 4.8-2.8 6.3-3.2 1.5-0.4 3.7-0.6 5.1-0.9 2.2-2.1 4.8-10.1 4.1-21.8l1.1 0.1 17.4 2.5c0 0-0.1 5.5 0.1 10.6 0.2 4 0.6 7.8 1.5 8.6 1.4 0.1 2.2 0.2 2.2 0.2q0 0 0 0c0.3 0.4 6.1 7.8 11.1 17.7z"/>
				<path id="&lt;Path&gt;" class="s1" d="m1625.9 682c-0.1 0.4-6 32-6 32.5-1.9 13.1 0.4 16.6 0.4 16.6 3 5.9-25.1 10.8-41.2 9.9-5.8-0.4-10.1-1.4-10.8-3.5-3.2-3.1 2.8-10.5 2.3-13.4-1.4-6.9-4.1-17.4-6.5-26.1-1.5-5.7-2.9-10.6-3.7-13.1q1.4-1.9 2.6-3.5c1.3-1.6 2.4-3.1 3.1-4.6 0.8-1.5 1.1-3 0.8-4.4q-0.4-1.6-1.1-3.2-0.3-0.7-0.7-1.4c-2.4-5.2-6.1-9.3-6.1-9.3 4.9-4 15.4-5.7 15.4-5.7 0 0 0.2 0.5 0.5 1.4 1 3.7 3.9 13.2 5.7 14.6 2.1 1.8 32.1 3.3 32.6-0.2 0.5-3.3-7.6-16.1-7.9-16.6q0 0 0 0c10.1 0.8 21.4 17.5 20.6 30z"/>
				<path id="&lt;Path&gt;" class="s4" d="m1577.4 588c-0.3-0.9-11.9 18.8-12.1 20.3-2.3 14.1 7.6 24.3 12.2 21.4 3-1.8 5.6 3.4 5.6 3.4l23.8-35.2c0 0-18.9-20.5-29.5-9.9z"/>
				<path id="&lt;Path&gt;" class="s5" d="m1601.5 632.6c0 0-0.1 5.5 0.1 10.6-9.6 0.2-15.2-8.3-17.5-13.1z"/>
				<path id="&lt;Path&gt;" class="s2" d="m1605 637.3c0 0-22.8 1.6-23.6-12.7-0.7-14.2-4.2-23.5 10.3-25.1 14.6-1.6 17.7 3.7 19.1 8.3 1.4 4.7 0.1 28.7-5.8 29.5z"/>
				<path id="&lt;Path&gt;" class="s4" d="m1609.7 600c-3.8-4.1-6.4-3-7.8-1.7-12.8-6.2-20.3 4.4-20.3 4.4-1 10.2-8.1 16.5-8.1 16.5 0 0 4.3 2.3 13.8-0.7 2.9-0.9 5.4-3.1 7.5-5.7-3.6 6.7-8.6 11.6-8.6 11.6 11.2-5.8 14.9-22 15.3-23.7 1.5 1.2 4.3 3.7 5.3 6.4 1.3 3.5 2.2 10.9 4.4 10.6 0 0 4.1-11.6-1.5-17.7z"/>
				<path id="&lt;Path&gt;" class="s3" d="m1579.1 741c-5.8-0.4-10.1-1.4-10.8-3.5-3.2-3.1 2.8-10.5 2.3-13.4-1.4-6.9-4.1-17.4-6.5-26.1 5-10.6 10-18.8 10-18.8 0 0 18.1 9.1 22.4 21.2 3.3 9.2-3 32.7-17.4 40.6z"/>
				<path id="&lt;Path&gt;" class="s6" d="m1643.8 709.2c0 0-19.2 8-44-0.5 0 0-6.6-0.1-9.8 1 0 0 0.2-6.6 3.2-8.6 3.1-2 17 0.7 21-0.1 8.9-2 24.3-4.1 29.6 8.2z"/>
				<path id="&lt;Path&gt;" class="s3" d="m1625 695.5c0 0 0.6-16.2-6.4-25.4 0 0 2.2-0.9 3.9 1.5 1.8 2.4 14.8 25.3 9.6 27.5-5.1 2.1-7.1-3.6-7.1-3.6z"/>
				<path id="&lt;Path&gt;" class="s6" d="m1596.5 700.4c-0.3 0-9.2 1.9-10.7 3.1-1.5 1.3 0.2 5.1 3.2 5.3 3 0.1 7.5-8.4 7.5-8.4z"/>
				<path id="&lt;Path&gt;" class="s2" d="m1572.7 707.7c0 0 25.6-3 48.6-9.3 0 0 4.2-0.3 4 3.4-0.2 3.8-38.4 27.8-47.5 24.4z"/>
				<path id="&lt;Path&gt;" class="s2" d="m1621.3 698.4c0 0 2.5-3.5 4.1-3.7 1.7-0.1 6.3 1.7 7.1 3.7 0.8 1.9-5.1 0.9-7.2 3.4-2 2.6-4-3.4-4-3.4z"/>
				<path id="&lt;Path&gt;" class="s1" d="m1572.8 652.7c0 0-16.9 1.9-18.9 9-4.2 14.8 18 60.1 23.4 64.5 2.3 1.9 12.1-2.1 11-15.6-0.5-7.1-11.4-42.8-15.5-57.9z"/>
				<g id="&lt;Group&gt;">
					<path id="&lt;Path&gt;" class="s7" d="m1580.7 775.9l-30-5.8c-3.3-0.6-5.5-3.8-4.8-7.1l2-10.5c0.6-3.3 3.8-5.4 7.1-4.8l30 5.8c3.3 0.6 5.5 3.8 4.9 7.1l-2 10.5c-0.7 3.3-3.9 5.5-7.2 4.8z"/>
					<path id="&lt;Path&gt;" class="s0" d="m1575.1 774.9l-30-5.8c-3.3-0.7-5.5-3.9-4.8-7.2l2-10.4c0.6-3.3 3.8-5.5 7.1-4.9l30.1 5.8c3.3 0.6 5.4 3.9 4.8 7.2l-2 10.4c-0.6 3.3-3.9 5.5-7.2 4.9z"/>
				</g>
				<g id="&lt;Group&gt;">
					<path id="&lt;Path&gt;" class="s0" d="m1531.5 682.3c-0.8-0.5-2.3-5.2-2.7-6.9-2-14.9-4.9-21.6-6.4-22.7l2.6-0.4c1.8 1.2 4.9 14.5 6.5 30z"/>
					<path id="&lt;Path&gt;" class="s0" d="m1535.3 753.5h-0.5c-0.5-7.8-1.2-17.3-2-27.3q0.4-0.1 0.9-0.2c0.9 14.7 1.5 26.1 1.6 27.5z"/>
				</g>
				<path id="&lt;Path&gt;" class="s4" d="m1586.5 588.3c0 0-3-15.2-19.5-10.3 0 0 5.4-0.1 8.8 1.8 0 0-12.3-3-20.9 9.8-8.6 12.9 5.5 34.6 3.4 40.1-2.2 5.5-15.4 10.5-9.4 24.6 6 14.1 52.7 20.1 53.6 32.9 0 0 9.1-28.6-5.7-36 0 0 7.2 3.6 9.7 9.8 0 0-2.1-12.8-11.2-14.4-7.9-1.4-17.4-12.5-17.5-15-0.1-2.4 8.7-43.3 8.7-43.3z"/>
			</g>
			<g id="&lt;Group&gt;">
				<g id="&lt;Group&gt;">
					<path id="&lt;Path&gt;" class="s2" d="m1356.3 400.8c24.3-6.2 51-43.8 51-43.8l-6.8-5.9c-7.1 8.3-36.5 22.7-36.5 22.7 0.1-7.7-0.1-14.6-0.6-21-3.2-43-19.5-57.4-23.9-60.5-0.7-0.6-1.1-0.8-1.1-0.8q0 0-0.1 0.9c0 1.3-0.1 3.9-0.3 7.4-0.9 26.4-1.9 106.2 18.3 101z"/>
					<path id="&lt;Path&gt;" class="s2" d="m1400.5 351.1c0.1-1.1 0.8-15.9 3.7-18.7 2.9-2.8 8.7-6.6 10.4-6.3 1.7 0.3 7.3 9.7 4.7 16.2-2.7 6.5-12 14.7-12 14.7z"/>
					<g id="&lt;Group&gt;">
						<path id="&lt;Path&gt;" class="s8" d="m1394.4 352.8l16 0.6c0.5 0.1 1-0.3 1-0.9l1.3-30.5c0-0.5-0.4-0.9-0.9-1l-16-0.6c-0.5-0.1-1 0.4-1 0.9l-1.3 30.5c0 0.5 0.4 0.9 0.9 1z"/>
						<path id="&lt;Path&gt;" class="s9" d="m1398.6 352.9l14.5 0.7c0.9 0 1.7-0.7 1.8-1.7l1.2-29c0-0.9-0.7-1.7-1.7-1.8l-14.5-0.6c-0.9 0-1.7 0.7-1.7 1.7l-1.2 29c-0.1 0.9 0.6 1.7 1.6 1.7z"/>
					</g>
					<path id="&lt;Path&gt;" class="s2" d="m1416.5 328c0 0-7.9-6.8-7.7-1.9 0.2 4.8 6.6 14.1 6.5 16.5-0.2 2.4 1.2-14.6 1.2-14.6z"/>
				</g>
				<path id="&lt;Path&gt;" class="s5" d="m1303.5 651.2c1.5 5.9 3.1 11.5 4.8 16.7q0.5 1.7 1 3.3 0.3 0.8 0.5 1.6 0.6 1.6 1.1 3 0.7 2 1.3 3.8 0.5 1.4 1 2.7c4.9 13.2 9 21.5 9 21.5l9.8-0.7c0 0-3.6-17.5-4.4-42.6q0-1.3 0-2.7-0.1-2.9-0.1-5.9 0-1.3 0-2.5c0.2-21.7 2.9-47.2 11.4-71.6 7-19.8 12-38.3 15.6-55.1 11.8-54.1 9-89.7 9-89.7l-55.2 6.5-2.5 0.3c-0.3 25.3-0.9 59.7-1.5 86.6-0.1 4.7-0.2 9.2-0.3 13.3-0.3 17.3-0.6 29.1-0.6 29.1-10.6 22.8-6.8 55.1 0.1 82.4z"/>
				<path id="&lt;Path&gt;" class="s10" d="m1319.3 243.6c0 0-13.1 11.1-1.1 23.9 0 0-10 1-13.3-1.8 0 0 0.6 1.4 1.2 2 0 0-11.1 0.4-15.7-3.1-4.6-3.5-1.7-60.5 29.3-54.1 0 0 26.2-2 23.8 28.3-2.5 30.4 7.4 30.4 7.4 30.4 0 0-2.7 1.3-4.1 1.3 0 0-1.9-0.7-2.3-1.8 0 0 0.4 1.7 0.9 2.2 0 0-10.7 1.1-16-3-5.4-4-11.6-18-10.1-24.3z"/>
				<path id="&lt;Path&gt;" class="s2" d="m1277.2 426.9c10.4-23.4 15.4-30 15.6-37.4 0.1-5.8-2.8-12.1-8.3-27.5-1.4-3.6-2.3-7.3-2.8-11.1-4.4-29.7 12.7-61.8 23.4-64 3-0.7 8-11.5 7.9-28.7l1.4 0.2 22.4 4.5c0 0-0.5 7-0.5 13.7 0 5.6 0.3 11.2 1.5 11.9 1.7 0.1 3.1 0.4 3.1 0.4 0 0 19 13.3 20.3 31.5 1.6 24.1-15.4 52.8-0.3 101.1 15.4 49.4-89.5 18.3-83.7 5.4z"/>
				<path id="&lt;Path&gt;" class="s5" d="m1336.8 262.9c0 0-0.5 7-0.5 13.7-12.6-0.4-19.2-11.8-21.9-18.2z"/>
				<path id="&lt;Path&gt;" class="s10" d="m1312 256c0 0-6.5-10.4-8.1-19.3-1.1-6.4 2.1-29.9 25.8-26.5 0 0 6.8 0.6 13.3 5 5.1 3.5 12.5 11 4.2 31.5l-2.1 7z"/>
				<path id="&lt;Path&gt;" class="s2" d="m1341 269.2c0 0-29.7 0.5-29.7-18.1-0.1-18.5-3.9-30.9 15.1-32 19-1.1 22.7 6 24.2 12.2 1.5 6.1-1.8 37.3-9.6 37.9z"/>
				<path id="&lt;Path&gt;" class="s10" d="m1339.9 218.7c0 0-8.1 21.7-20.6 24.9-12.5 3.2-17.9-0.1-17.9-0.1 0 0 9.6-7.6 11.5-20.9 0 0 20.9-14.3 27-3.9z"/>
				<path id="&lt;Path&gt;" class="s10" d="m1337.9 220.4c0 0 6.1 4.9 7.6 9.6 1.4 4.7 2.1 14.4 4.9 14.1 0 0 6.2-14.8-0.7-23.1-7.3-8.9-11.8-0.6-11.8-0.6z"/>
				<path id="&lt;Path&gt;" class="s2" d="m1238.5 451.7l8.9 2.7c0 0 29.5-48.9 32.1-61.6 0.9-4.1 3.1-12.4 5.6-21.7 5.1-19.2 11.8-42.7 11.8-42.7l2.2-9.6 7.5-32.4c0 0-14.4 1.4-22.8 5-2.7 1.1-4.9 2.5-5.6 4.1-6.2 13.6-12.3 47.8-16.6 72.2-2.5 13.6-4.3 24.2-5.3 26.4-2.6 6.3-10.8 40.6-17.8 57.6z"/>
				<path id="&lt;Path&gt;" class="s10" d="m1339 221.2c0 0-5.8 22.7-21.5 30 0 0 15.7-14 17.1-29 1.3-15 4.4-1 4.4-1z"/>
				<path id="&lt;Path&gt;" class="s2" d="m1271.8 646.5c3.2 33.8 17.2 55.7 17.2 55.7l4.8 4.4c0 0 4.3-24.8 7.4-53.2 3-27 7.1-55.5 11.8-64.2 6.9-13 12-39.7 15.7-67.8 6-46.5 8.2-97.2 8.2-97.2l-55.9-2.8c-5.7 9.5-8.1 25-8.7 42.6-0.6 18.6 0.8 39.5 2.9 58.2 2.8 26.1 6.7 47.9 7.7 52.8q-0.1 0 0 0c0.1 0.7-0.1 1.3-0.4 1.9-11.1 22-12.8 47.2-10.7 69.6z"/>
				<path id="&lt;Path&gt;" class="s11" d="m1337.1 349.1c1.3 30.7 5.9 61.2 19.3 59.2 16.4-2.4 20.6-17.7 21.5-29.1 0.5-7-0.2-12.6-0.2-12.6 0 0-8.1 0-9.4-1.2-6.2-5.8-4.4-61.9-7.4-67.8-3.1-5.8-23-9.5-23-9.5 0 0-2 30.6-0.8 61z"/>
				<path id="&lt;Path&gt;" class="s12" d="m1337.1 349.1c1.3 30.7 5.9 61.2 19.3 59.2 16.4-2.4 20.6-17.7 21.5-29.1-4-0.2-11.1-1.1-13.9-5.4-4.1-6.2-16.6-45.8-16.6-45.8 0 0-5 8.9-10.3 21.1z"/>
				<path id="&lt;Path&gt;" class="s10" d="m1303.5 651.2c1.5 5.9 3.1 11.5 4.8 16.7q0.5 1.7 1 3.3 0.3 0.8 0.5 1.6 0.6 1.6 1.1 3 0.7 2 1.3 3.8 0.5 1.4 1 2.7c4.9 13.2 9 21.5 9 21.5l9.8-0.7c0 0-3.6-17.5-4.4-42.6q0-1.3 0-2.7-0.1-2.9-0.1-5.9 0-1.3 0-2.5c0.2-21.7 2.9-47.2 11.4-71.6 7-19.8 12-38.3 15.6-55.1-5.8 1.2-10.9 0-25.8-1.3-1.6-0.1-9.1 9.2-16.5 21.4-0.4 17.3-8.8 26-8.8 26-10.6 22.8-6.8 55.1 0.1 82.4z"/>
				<path id="&lt;Path&gt;" class="s13" d="m1271.8 646.5c3.2 33.8 17.2 55.7 17.2 55.7l4.8 4.4c0 0 4.3-24.8 7.4-53.2 3-27 7.1-55.5 11.8-64.2 6.9-13 12-39.7 15.7-67.8-5.2 2.2-22.7 7.7-53.5 0.8 2.8 26.1 6.7 47.9 7.7 52.8q-0.1 0 0 0c0.1 0.7-0.1 1.3-0.4 1.9-11.1 22-12.8 47.2-10.7 69.6z"/>
				<path id="&lt;Path&gt;" class="s10" d="m1354.5 390.9c0 0-32.9 8.2-61.7-1.4 0 0-15.9 33.7-20.3 48.1-4.3 14.4-11.4 44.2-11.4 44.2 0 0 58.6 18.1 106.8 0 0 0 2.2-39.7-4.1-60.4-6.3-20.6-9.3-30.5-9.3-30.5z"/>
				<path id="&lt;Path&gt;" class="s11" d="m1235.2 406.3c0 7.7 7.9 12.4 16.4 14.7 8.1 2.3 16.7 2.2 19.5 0.4 4.6-3.1 12.2-37.9 14.5-48.5 0.4-1.9 0.6-3 0.6-3 0 0 6.1 14.4 6.2 15.8 0.1 0.6 0.2 1.4 0.3 2.2 0 0.9 0.1 1.6 0.1 1.6 0 0 32.9 16.6 61.7 1.4 0 0 11.7-67.8 6.7-79.4-2.6-5.8-15.8-17.8-21-23-1.2-1.1-1.1-3.4-0.6-5.5 0.3-1.8-1.3-3.3-3-2.9-3.4 0.9-9.5 0.7-16.1-1.4-3.2-1.1-6.6-2.6-9.8-4.8-0.9-0.6-2.1 0-2.3 1.1-0.5 4-1.7 11.4-3.9 11.4-3.1 0-24 2.5-25.6 5.1-0.5 0.9-6 13.2-12.8 29.6q0 0 0 0c-12.9 30.6-30.9 75.3-30.9 85.2z"/>
				<path id="&lt;Path&gt;" class="s12" d="m1286 369.9c0 0 6.1 14.4 6.3 15.8 0 0.6 0.1 1.4 0.2 2.2 2.9 2.4 6.5 4.2 10.1 5.3 10.2 3.1 14.7-16.6 14.1-26.4-0.6-9.8-15.1-37.9-20-38.4-4.8-0.6-10.7 41.5-10.7 41.5z"/>
				<path id="&lt;Path&gt;" class="s14" d="m1285.6 372.9c0.4-1.9 0.6-3 0.6-3q-0.5 1.5-0.6 3z"/>
				<g id="&lt;Group&gt;">
					<path id="&lt;Path&gt;" class="s15" d="m1327.9 397.1c18.8 0 26.2-5.2 26.8-5.7l1.2-8.8c-0.2 0.1-25.3 15.2-64.2 0.8l0.8 6.7c15 5.5 25.7 7 35.4 7z"/>
				</g>
				<path id="&lt;Path&gt;" class="s12" d="m1235.2 406.3c0 7.7 7.9 12.4 16.4 14.7-11.7-13.8 13.8-97.8 14.5-99.9-12.9 30.6-30.9 75.3-30.9 85.2z"/>
				<path id="&lt;Path&gt;" class="s12" d="m1304.5 286.4c0 0 15.6 9.9 27.5 7.6 0 0 2.9-1.8-1.1-3.6-3.7-1.7-12.2-6.8-10.4-11.7-3.2-1.1-6.6-2.6-9.8-4.8-0.9-0.6-2.1 0-2.3 1.1-0.5 4-1.7 11.4-3.9 11.4z"/>
				<g id="&lt;Group&gt;">
					<path id="&lt;Path&gt;" class="s10" d="m1316.6 712h6.2c2.1-0.3 3.7-0.9 5.8-1.2 3.3-0.4 4.8 0.9 5.1 1.2q0.1 0.1 0.1 0.1h26.6c0.6-0.9 0-3.2-0.6-4.8-0.5-1.1-1.4-1.9-2.5-2.3-2.8-0.8-8.4-1.5-13.5-6.1-2.9-2.6-13.8-9.5-13.8-9.5h-0.1c-0.2 0-1.4 0.3-6.4 4.5-2.5 2.2-6.9-3.1-6.9-3.1 0 0-0.9 0.7-1.5 2-0.5 1-0.8 2.4-0.6 4.1 0.4 2.4-0.8 6.8-1.9 9.8-0.6 1.9-1.1 3.2-1.1 3.2 0 0-0.3 1.5 5.1 2.1z"/>
					<path id="&lt;Path&gt;" class="s16" d="m1315.1 692.8c1.5 1.1 4.7 3.1 6.8 3.4 2.8 0.4 8.1-6.8 8.1-6.8h-0.1c-0.2 0-1.4 0.3-6.4 4.5-2.5 2.2-6.9-3.1-6.9-3.1 0 0-0.9 0.7-1.5 2z"/>
					<path id="&lt;Path&gt;" class="s16" d="m1316.6 712h6.2c2.1-0.3 3.7-0.9 5.8-1.2 3.3-0.4 4.8 0.9 5.1 1.2q0.1 0.1 0.1 0.1h26.6c0.6-0.9 0-3.2-0.6-4.8-0.8-0.7-1.1 3.1-1.5 3.7-0.5 0.7-21.7 0.3-22.9-0.6-1.3-0.9-4.9-2.5-10.1-1.3-4.4 1.1-11-1.6-12.7-2.4-0.6 1.9-1.1 3.2-1.1 3.2 0 0-0.3 1.5 5.1 2.1z"/>
				</g>
				<g id="&lt;Group&gt;">
					<path id="&lt;Path&gt;" class="s10" d="m1283.2 712h6.2c2.1-0.3 3.7-0.9 5.8-1.2 3.3-0.4 4.8 0.9 5.1 1.2q0.1 0.1 0.1 0.1h26.6c0.6-0.9 0-3.2-0.6-4.8-0.5-1.1-1.4-1.9-2.5-2.3-2.9-0.8-8.4-1.5-13.5-6.1-2.9-2.6-13.8-9.5-13.8-9.5h-0.1c-0.2 0-1.4 0.3-6.4 4.5-2.5 2.2-6.9-3.1-6.9-3.1 0 0-0.9 0.7-1.5 2-0.5 1-0.8 2.4-0.6 4.1 0.4 2.4-0.8 6.8-1.9 9.8-0.6 1.9-1.1 3.2-1.1 3.2 0 0-0.3 1.5 5.1 2.1z"/>
					<path id="&lt;Path&gt;" class="s16" d="m1281.7 692.8c1.5 1.1 4.7 3.1 6.8 3.4 2.8 0.4 8.1-6.8 8.1-6.8h-0.1c-0.2 0-1.4 0.3-6.4 4.5-2.5 2.2-6.9-3.1-6.9-3.1 0 0-0.9 0.7-1.5 2z"/>
					<path id="&lt;Path&gt;" class="s16" d="m1283.2 712h6.2c2.1-0.3 3.7-0.9 5.8-1.2 3.3-0.4 4.8 0.9 5.1 1.2q0.1 0.1 0.1 0.1h26.6c0.6-0.9 0-3.2-0.6-4.8-0.9-0.7-1.1 3.1-1.5 3.7-0.5 0.7-21.7 0.3-22.9-0.6-1.3-0.9-5-2.5-10.1-1.3-4.5 1.1-11-1.6-12.7-2.4-0.6 1.9-1.1 3.2-1.1 3.2 0 0-0.3 1.5 5.1 2.1z"/>
				</g>
				<path id="&lt;Path&gt;" class="s2" d="m1238.5 451.7c0 0-8.4 8.1-8.6 12.2-0.2 4-2.5 16.1 0 15.9 2.4-0.2 4.3-12.8 8.6-14 4.3-1.3-2.3 4.7 0 5.5 2.3 0.9 9.7-7 9.5-9.8-0.2-2.9-0.6-7.1-0.6-7.1z"/>
			</g>
			<g id="&lt;Group&gt;">
				<path id="&lt;Path&gt;" class="s10" d="m928.5 245.2c-0.4-1.3-5.6-14.2-26-8.6 0 0 10.3-1.9 13.4 1.9 0 0-8.5-3.2-13.4 0.2-5 3.5-5.2 14.2-4.2 17.4 0.9 3.1 7.2 12.4 11 12.2 1.4-0.1 2.9-0.7 4.2-1.3q-0.7 2.6-1.1 5.7c-2.9 19 10.5 32.6 16.8 28.7 4-2.6 7.6 4.5 7.6 4.5l31.7-47.8c0 0-25.8-27.4-40-12.9z"/>
				<path id="&lt;Path&gt;" class="s13" d="m1019.8 634.1c-3.9 10-24 30.6-44.7 50.1-24.7 23.3-50.3 45-50.3 45 0 0-11.7 3.5-6.6-13.7 0 0 28.2-51.8 40.3-67.1 3.5-4.4 7-8.4 10.4-11.9 8.4-8.7 15.3-14.1 15.3-14.1 0 0-1.6-2.6-4.1-7-12.6-21.5-48.8-87.6-37.6-116.9 13.4-35.3 46.8-51.2 46.8-51.2 0 0 10.6 44.7 19.6 90.6 8.2 42.3 15 85.6 10.9 96.2z"/>
				<path id="&lt;Path&gt;" class="s10" d="m1008.9 537.9c-6.2 28.3-16.8 68.3-28.8 77.5-12.6-21.5-48.8-87.6-37.6-116.9 13.4-35.3 46.8-51.2 46.8-51.2 0 0 10.6 44.7 19.6 90.6z"/>
				<path id="&lt;Path&gt;" class="s10" d="m975.1 684.2c-24.7 23.3-50.3 45-50.3 45 0 0-11.7 3.5-6.6-13.7 0 0 28.2-51.8 40.3-67.1 3.5-4.4 7-8.4 10.4-11.9-0.4 13.3 0 35.7 6.2 47.7z"/>
				<path id="&lt;Path&gt;" class="s2" d="m1004.1 514c0 0-29.3-73.5-27.8-75.7 1-1.3 2.8-41.4 4.1-71.5 0.8-18.4 1.3-33 1.3-33 0 0 13 4.6 16.1 36.2 0.6 6.1 1 11.8 1.2 17.2 0.8 22.4-0.8 38.1 2.6 45.6 4.1 9.2 2.6 51.4 3.9 55.7 1.3 4.2 7.9 14.9-1.4 25.5z"/>
				<path id="&lt;Path&gt;" class="s13" d="m980.9 465l-2.3-8.6c-16.5 7.1-64.8-3.3-64.8-3.3 0 0-14.4 17-7 51.7 3.6 16.9 16.4 89.1 21.7 110.2 1.9 7.7 3.3 13.1 3.9 15.3q0 0 0 0c0.2 0.7 0.1 1.4-0.2 2-2.2 5.5-3.9 11.2-5.1 16.9-12 56 20.8 117.9 20.8 117.9l5.6-3.3c0 0 2.2-74.7 8-108.4 1-5.7 2.1-10.3 3.3-13 3.5-8.2 5.9-21 7.6-36.1 3.3-28.5 3.9-65 3.7-93.1 0.5 0 4.8-48.2 4.8-48.2z"/>
				<path id="&lt;Path&gt;" class="s2" d="m906.7 474.1c-6.7-10.1 16.3-51.4 15.5-55.3-1.7-7.7-5.4-16.2-9.1-23.9-3.7-7.6-7.4-14.4-8.6-18.7 1.1-1.6 2.3-3.2 3.4-4.6 1.6-2.3 3.1-4.4 4-6.3 1-2.1 1.4-4.1 0.9-6q-0.5-2.2-1.5-4.3-0.4-1-0.9-1.9c-3.4-6.9-8.5-12.4-8.5-12.4 8.1-5.2 20.8-7.8 20.9-7.5 1-0.3 1.8-0.5 2.5-0.7q0.7-0.2 1.4-0.3 0 0 0 0c3.6-0.9 6.6-3.5 7.7-7 1.7-5.3 2.9-13.4 2.2-23.6l1.4 0.2 23.5 3.2c0 0 0 7.4 0.4 14.2 0.2 4.6 0.7 9 1.6 10.9 0.2 0.5 0.7 0.8 1.2 0.9 3.9 0.9 17 2.8 17 2.8v0.1c-0.2 7.4 11.8 20.3 11 37.1-0.1 0.6-6.2 44.6-6.1 45.2 0.5 12.5 6.6 47.8 6.6 47.8 5.6 10.9-82.9 20.5-86.5 10.1z"/>
				<path id="&lt;Path&gt;" class="s5" d="m961.6 305c0 0-0.1 7.4 0.3 14.3-13 0.4-20.7-11.1-23.9-17.5z"/>
				<path id="&lt;Path&gt;" class="s2" d="m966.3 311.3c0 0-30.7 2.4-31.9-16.8-1.2-19.2-6-31.8 13.6-34.1 19.5-2.3 23.8 4.7 25.8 11 1.9 6.3 0.5 38.8-7.5 39.9z"/>
				<path id="&lt;Path&gt;" class="s4" d="m972.2 260.8c-5.1-5.4-8.6-4-10.5-2.1-17.4-8.2-27.4 6.1-27.4 6.1-1.2 13.9-10.7 22.4-10.7 22.4 0 0 5.9 3.1 18.6-1 3.9-1.3 7.2-4.3 10-7.9-4.7 9.1-11.4 15.9-11.4 15.9 15-8.1 19.9-30 20.4-32.3 1.9 1.6 5.9 5 7.2 8.5 1.8 4.8 3.1 14.8 6.1 14.3 0 0 5.4-15.7-2.3-23.9z"/>
				<path id="&lt;Path&gt;" class="s10" d="m984.6 768.8h-47.7c0 0-1.8-7.6 1.4-12.7 2.7-4.6 1-7.7-0.2-11.6 2.2 0.9 4.8 2.3 7.9 2.1 2.3-0.1 6.1-1.9 8.3-3.2 2 2.4 9.6 13 12.3 15 3.2 2.2 17.1 1.4 18 10.4z"/>
				<path id="&lt;Path&gt;" class="s10" d="m913.7 767.7l-17.9-44.2c0 0 6.3-4.5 12.3-3.5 5.3 0.8 7.3-1.2 10.1-4.5 0 2.4 0.3 5.2 1.6 8 1 2.2 3 4.1 5 5.7-1.4 2.7-7.3 14.6-8.1 17.9-0.9 3.8 5 16.3-3 20.6z"/>
				<path id="&lt;Path&gt;" class="s17" d="m986.6 416.2c0-0.3 1.8-14.2 3.5-26.4 3.7-0.4 8.2-1.3 12-3.1-0.2-5.4-3.7-51.1-23-53.7-0.9-0.3-14.2-1.9-14.2-1.9 0 0 11.5 16.7 11.4 18.6-0.2 1.9-18.6 2.6-30.7 2.7-12 0.2-18.8-19.9-18.9-20.2-0.5 0.1-18.2 2.9-24.8 8.5 0 0 5.1 5.5 8.5 12.4q0.5 0.9 0.9 1.9 1 2.1 1.5 4.3c0.5 1.9 0.1 3.9-0.9 6-0.9 1.9-2.4 4-4 6.3-1.1 1.4-2.3 3-3.4 4.6 0.4 1.5 1.1 3.3 2 5.3 1.7 3.8 4.1 8.4 6.6 13.4 3.7 7.7 7.4 16.2 9.1 23.9 0.8 3.9-22.2 45.2-15.5 55.3 1.1 3.1 9.6 4.4 20.8 4.5 26.9 0.1 69.6-6.9 65.7-14.6 0 0-6.1-35.3-6.6-47.8z"/>
				<path id="&lt;Path&gt;" class="s18" d="m927.5 478.6c-11.2-0.1-19.7-1.4-20.8-4.5-6.7-10.1 16.3-51.4 15.5-55.3-1.7-7.7-5.4-16.2-9.1-23.9-2.5-5-4.9-9.6-6.6-13.4 1-3.8 1.5-6 1.5-6 0 0 24.4 28.4 30 41.8 4.4 10.5-5.8 46.3-10.5 61.3z"/>
				<path id="&lt;Path&gt;" class="s2" d="m915.9 459.3l-4.8 8.4c-31-12.3-50.8-40-50.8-40-1.1-15.7 6.3-33.8 15.1-49.4q2.2-3.9 4.5-7.5c6.2 5.3 14.9 12.3 23.2 17.3-1.3 2.2-2.8 4.7-4.5 7.5-6.9 11.3-15.8 25.8-16.9 27-2 1.9 34.2 36.7 34.2 36.7z"/>
				<path id="&lt;Path&gt;" class="s2" d="m915.9 459.3c0 0 2.6-0.4 4.3-1.8 1.7-1.5 7.2-5.7 7.5-4.4 0.3 1.3-3.9 3.3-1.7 3.6 2.2 0.3 5.7-1.2 9.2-0.6 3.5 0.5 8.9 8.6 7.3 9.5-1.7 1-7.7-2.2-9.3-1.1-1.6 1.1-13 7.4-22.1 3.2-9.1-4.2 4.8-8.4 4.8-8.4z"/>
				<path id="&lt;Path&gt;" class="s17" d="m899.9 399c-15.3-1-26.6-20.9-26.6-20.9 11.9-21.1 28.6-37.4 28.6-37.4 42.4 16.1 4.9 53.7-2 58.3z"/>
			</g>
			<g id="&lt;Group&gt;">
				<path id="&lt;Path&gt;" class="s4" d="m1111.7 228c0 0-17.9-0.9-18.4-11.2-0.5-10.3-15.2-17.8-10.9-26 5.2-10.2 0.4-19.9 7-26.7 7.3-7.5 16.5-3.4 21.4-7.8 4.8-4.4 13.7-8.4 22.4-3 8.8 5.4 15.4 2.5 21.2 7.7 6.3 5.7 3.9 13 9.2 16.9 4.8 3.6 2.8 13.4-1.2 21.4-2.9 5.8 3.8 11.2-7.8 17.8-4.8 2.8-3.7 9.7-18.3 10.9-6.6 0.5-20.8-2.5-24.6 0z"/>
				<path id="&lt;Path&gt;" class="s10" d="m1077.6 624.1c0 0 0-7.2 1.1-9.6 1-2.4 4.8-12.2 4.8-12.2h14.7c0 0 2.8 8.9 2.9 11.8 0.2 2.9 0 10 0 10z"/>
				<path id="&lt;Path&gt;" class="s10" d="m1171.3 624.1c0 0 0-7.2-1-9.6-1.1-2.4-4.8-12.2-4.8-12.2h-14.8c0 0-2.7 8.9-2.9 11.8-0.2 2.9 0 10 0 10z"/>
				<path id="&lt;Path&gt;" class="s19" d="m1112.2 218.9c0 0-0.5 16-2.6 23.2l-16.3 11.4 61.3 9.2-14.6-20.2c0 0-4.4-21.6-2.1-29.5 2.3-8-25.7 5.9-25.7 5.9z"/>
				<path id="&lt;Path&gt;" class="s20" d="m1112.1 221.1c0 0 4.9 11.7 14 11.4 9.1-0.3 11.2-10.6 11.2-10.6z"/>
				<path id="&lt;Path&gt;" class="s19" d="m1125 228c-6.6-0.1-18.8-8.9-18.8-19.8l0.1-17.1c0-4 2.7-7.2 6.1-7.2h25.3c3.4 0 6.1 3.2 6.1 7.2v16.1c0 11.4-11.2 20.9-18.8 20.8z"/>
				<path id="&lt;Path&gt;" class="s21" d="m1079.5 374.1c0 0 2.6 78.8-1.3 123.7-3.8 45 0 107.5 0 107.5 0 0 12.4 6.8 25.8 0 0 0 14.6-86.8 14.5-107.5-0.1-22 16-120.3 16-120.3z"/>
				<path id="&lt;Path&gt;" class="s21" d="m1170.8 605.3c0 0-12.4 6.8-25.8 0 0 0-14.6-86.8-14.5-107.5 0-9.3-2.8-32.2-6.1-55.5-4.5-32-9.9-64.8-9.9-64.8l57.1-3.6c0 0-4.7 79-0.8 123.9 3.8 45 0 107.5 0 107.5z"/>
				<path id="&lt;Path&gt;" class="s22" d="m1171 387.2c0 0-24.4 4.7-46.6 4.7-9.7 0-20.3-1.1-28.6-2.2-9.3-1.2-16-2.5-16-2.5 0 0-4.9 0.4-2-23.9 2.2-18.6 1.5-35.3 1-52.5 0-1.9 0-4.2 0.2-6.7 0.9-20.1 7-56.2 11.6-58.1 0 0 6.9-2.6 19-3.9 0 0.3 7.1 10.6 15.4 11.8 5.2-2.1 9.3-3.9 15-11.4 7.2 0.8 15.1 2.3 23.5 4.5 0 0 0.9 3.8 4.2 70.2 1.3 26.3 10.3 70.1 3.3 70z"/>
				<path id="&lt;Path&gt;" class="s23" d="m1095.8 389.7c-9.3-1.2-16-2.5-16-2.5 0 0-4.9 0.4-2-23.9 2.2-18.6 1.5-35.3 1-52.5 0-1.9 0-4.2 0.2-6.7 1.4 2.3 17.2 27.8 21.5 46.8 3.1 13.9-1.6 30.2-4.7 38.8z"/>
				<path id="&lt;Path&gt;" class="s14" d="m1130.5 497.8c0-9.3-2.8-32.2-6.1-55.5 3.4-14 11.7-27.4 11.7-27.4 10.6 29.6-5.6 82.9-5.6 82.9z"/>
				<path id="&lt;Path&gt;" class="s22" d="m1056.3 325c-0.5 0.5 1.5 5.5 4.5 12 6.1 13.5 16.3 33.3 16.3 33.3-1.5 5.6-3.1 9.1-3.1 9.1-17.1-13.5-28.2-25-35.3-33.8-9.9-12.3-11.9-19.4-11.9-19.4 38.2-77.8 65.1-80.7 65.1-80.7l-3.2 51.4c0 0-30.6 26.6-32.4 28.1z"/>
				<path id="&lt;Path&gt;" class="s19" d="m1075.1 371.3c0 0 9.2-8.6 13-3.8 3.8 4.8 4.5 12.4 1.6 11.9-3-0.5-9-3.3-9.8-1.9-0.9 1.4-4.7 4-5.9 1.9-1.2-2.1 1.1-8.1 1.1-8.1z"/>
				<path id="&lt;Path&gt;" class="s19" d="m1077.1 370.3c-1.5 5.6-3.1 9.1-3.1 9.1-17.1-13.5-28.2-25-35.3-33.8 5.3-0.3 13.1-2.3 22.1-8.6 6.1 13.5 16.3 33.3 16.3 33.3z"/>
				<path id="&lt;Path&gt;" class="s22" d="m1224.7 326.2c0 0-2 7.1-12 19.4-7 8.8-18.1 20.3-35.3 33.8 0 0-1.6-3.5-3.1-9.1 0 0 10.2-19.8 16.4-33.3 3-6.5 5-11.5 4.4-12-1.4-1.1-20-17.4-28.4-24.6-2.4-2.1-3.9-3.5-3.9-3.5l-1.9-50.6c0 0 25.6 2.1 63.8 79.9z"/>
				<path id="&lt;Path&gt;" class="s19" d="m1176.4 371.3c0 0-9.3-8.6-13.1-3.8-3.7 4.8-4.4 12.4-1.5 11.9 2.9-0.5 8.9-3.3 9.8-1.9 0.8 1.4 4.7 4 5.8 1.9 1.2-2.1-1-8.1-1-8.1z"/>
				<path id="&lt;Path&gt;" class="s19" d="m1174.3 370.3c1.5 5.6 3.1 9.1 3.1 9.1 17.2-13.5 28.3-25 35.3-33.8-5.3-0.3-13.1-2.3-22-8.6-6.2 13.5-16.4 33.3-16.4 33.3z"/>
				<path id="&lt;Path&gt;" class="s23" d="m1195.1 325c-1.4-1.1-20-17.4-28.4-24.6 0 0 8.3-6.3 13.5 2.8 5.1 9.1 14.9 21.8 14.9 21.8z"/>
				<path id="&lt;Path&gt;" class="s23" d="m1224.7 326.2c0 0-2 7.1-12 19.4-11.5-0.1 12-19.4 12-19.4z"/>
				<path id="&lt;Path&gt;" class="s4" d="m1106.3 198c0 0 4.5-14 19.6-11.8 15 2.2 16.3 5.4 17.9 9.1 1.6 3.8 4.7-13.6 4.7-13.6l-17.7-5.3c0 0-21.5 2.5-23 6.1-1.6 3.6-1.6 3.6-1.6 3.6z"/>
				<g id="&lt;Group&gt;">
					<path id="&lt;Compound Path&gt;" fill-rule="evenodd" class="s4" d="m1115.8 208.5c-2.6 0-7.8-0.6-8.7-5.1-0.2-1.4 0-2.6 0.8-3.5 0.8-1 2.2-1.6 3.8-1.6h8q2.3 0 3.1 1.3c1 1.4 0.2 3.6-0.1 4.5-1.3 2.9-3 4.3-5.4 4.3-0.1 0-0.7 0.1-1.5 0.1zm-4.1-9.7c-1.4 0-2.7 0.5-3.4 1.4-0.7 0.8-0.9 1.9-0.7 3.1q0.8 3.5 5.2 4.4c2.3 0.5 4.4 0.2 4.5 0.2 2.2 0 3.7-1.3 4.9-4 0.3-0.7 1-2.8 0.2-4q-0.7-1.1-2.7-1.1z"/>
				</g>
				<g id="&lt;Group&gt;">
					<path id="&lt;Compound Path&gt;" fill-rule="evenodd" class="s4" d="m1134.3 208.5c-0.8 0-1.4-0.1-1.5-0.1-2.4 0-4.1-1.4-5.4-4.3-0.3-0.9-1.1-3.1-0.1-4.5q0.8-1.3 3.1-1.3h8c1.6 0 3 0.6 3.8 1.6 0.8 0.9 1 2.1 0.8 3.5-0.9 4.5-6.1 5.1-8.7 5.1zm-3.9-9.7q-2 0-2.7 1.1c-0.8 1.2-0.1 3.3 0.2 4 1.2 2.7 2.7 4 4.9 4 0.1 0 2.2 0.3 4.5-0.2q4.4-0.9 5.1-4.4c0.3-1.2 0.1-2.3-0.6-3.1-0.7-0.9-2-1.4-3.4-1.4z"/>
				</g>
				<g id="&lt;Group&gt;">
					<path id="&lt;Path&gt;" class="s4" d="m1122.2 202q-0.2 0-0.3-0.2c-0.1-0.2 0-0.4 0.2-0.4 0.1-0.1 3.2-1.5 6 0 0.1 0.1 0.2 0.2 0.1 0.4-0.1 0.2-0.2 0.2-0.4 0.1-2.5-1.3-5.5 0-5.5 0q0 0.1-0.1 0.1z"/>
				</g>
			</g>
			<g id="&lt;Group&gt;">
				<path id="&lt;Path&gt;" class="s22" d="m1704.6 649.7c0 0-17.3-0.8-17.8-10.8-0.5-10-14.7-17.2-10.6-25.3 5.1-9.8 0.4-19.2 6.8-25.8 7.1-7.3 16-3.3 20.7-7.6 4.7-4.2 13.3-8.1 21.8-2.9 8.5 5.2 14.9 2.4 20.5 7.5 6.2 5.5 3.8 12.6 8.9 16.4 4.7 3.5 2.8 13-1.1 20.7-2.9 5.6 3.6 10.9-7.5 17.3-4.7 2.7-3.7 9.4-17.8 10.5-6.4 0.6-20.2-2.4-23.9 0z"/>
				<path id="&lt;Path&gt;" class="s10" d="m1671.6 1033.8c0 0 0-7 1-9.4 1-2.3 4.7-11.8 4.7-11.8h14.3c0 0 2.6 8.7 2.8 11.5 0.2 2.8 0 9.7 0 9.7z"/>
				<path id="&lt;Path&gt;" class="s10" d="m1762.4 1033.8c0 0 0-7-1-9.4-1-2.3-4.7-11.8-4.7-11.8h-14.3c0 0-2.6 8.7-2.8 11.5-0.2 2.8 0 9.7 0 9.7z"/>
				<path id="&lt;Path&gt;" class="s19" d="m1705.1 640.9c0 0-0.5 15.6-2.5 22.6l-15.8 11 59.5 8.9-14.2-19.6c0 0-4.3-20.9-2.1-28.6 2.3-7.8-24.9 5.7-24.9 5.7z"/>
				<path id="&lt;Path&gt;" class="s20" d="m1705 643.1c0-0.1 4.7 11.3 13.6 11 8.8-0.2 10.8-10.2 10.8-10.2z"/>
				<path id="&lt;Path&gt;" class="s19" d="m1717.6 649.7c-6.5-0.1-18.3-8.6-18.3-19.2v-16.5c0-3.9 2.7-7 6-7h24.5c3.3 0 6 3.1 6 7v15.6c0 11.1-10.9 20.3-18.2 20.1z"/>
				<path id="&lt;Path&gt;" class="s21" d="m1673.4 791.4c0 0 2.5 76.4-1.2 119.9-3.8 43.6 0 104.3 0 104.3 0 0 12 6.6 24.9 0 0 0 14.2-84.2 14.2-104.3-0.1-21.3 15.4-116.6 15.4-116.6z"/>
				<path id="&lt;Path&gt;" class="s21" d="m1761.9 1015.6c0 0-12 6.6-25 0 0 0-14.2-84.2-14.1-104.3 0.1-9-2.7-31.2-5.9-53.8-4.4-31-9.6-62.8-9.6-62.8l55.4-3.5c0 0-4.5 76.6-0.8 120.1 3.7 43.6 0 104.3 0 104.3z"/>
				<path id="&lt;Path&gt;" class="s13" d="m1762.1 804.1c0 0-23.6 4.5-45.2 4.5-9.4 0-19.6-1-27.7-2.1-9-1.2-15.5-2.4-15.5-2.4 0 0-4.8 0.4-1.9-23.2 2.1-18 1.5-34.2 1-50.9-0.1-1.8 0-4 0.1-6.5 0.9-19.4 6.8-54.5 11.3-56.3 0 0 6.6-2.5 18.4-3.7 0 0.2 6.8 10.2 15 11.3 5-2 9-3.7 14.5-11 7 0.8 14.6 2.2 22.7 4.4 0 0 0.9 3.7 4.1 68.1 1.3 25.5 10 67.9 3.2 67.8z"/>
				<path id="&lt;Path&gt;" class="s14" d="m1722.8 911.3c0.1-9-2.7-31.2-5.9-53.8 3.3-13.6 11.4-26.6 11.4-26.6 10.2 28.7-5.5 80.4-5.5 80.4z"/>
				<path id="&lt;Path&gt;" class="s13" d="m1650.9 743.8c-0.5 0.5 1.4 5.3 4.3 11.7 6 13 15.9 32.2 15.9 32.2-1.4 5.5-3 8.8-3 8.8-16.7-13-27.4-24.2-34.2-32.7-9.7-12-11.6-18.9-11.6-18.9 37-75.4 63.1-78.2 63.1-78.2l-3.1 49.9c0 0-29.6 25.8-31.4 27.2z"/>
				<path id="&lt;Path&gt;" class="s19" d="m1669.1 788.7c0 0 9-8.3 12.7-3.7 3.6 4.7 4.3 12 1.4 11.5-2.8-0.5-8.6-3.1-9.4-1.8-0.9 1.3-4.6 3.9-5.7 1.8-1.1-2 1-7.8 1-7.8z"/>
				<path id="&lt;Path&gt;" class="s19" d="m1671.1 787.7c-1.4 5.5-3 8.8-3 8.8-16.7-13-27.4-24.2-34.2-32.7 5.1-0.4 12.7-2.2 21.3-8.3 6 13 15.9 32.2 15.9 32.2z"/>
				<path id="&lt;Path&gt;" class="s13" d="m1814.2 744.9c0 0-2 6.9-11.6 18.9-6.9 8.5-17.6 19.7-34.2 32.7 0 0-1.6-3.3-3-8.8 0 0 9.8-19.2 15.8-32.2 2.9-6.4 4.9-11.2 4.3-11.7-1.3-1.1-19.4-16.9-27.5-23.9-2.4-2-3.9-3.3-3.9-3.3l-1.8-49.1c0 0 24.8 2 61.9 77.4z"/>
				<path id="&lt;Path&gt;" class="s19" d="m1767.3 788.7c0 0-8.9-8.3-12.6-3.7-3.7 4.7-4.3 12-1.5 11.5 2.8-0.5 8.6-3.1 9.5-1.8 0.8 1.3 4.5 3.9 5.7 1.8 1.1-2-1.1-7.8-1.1-7.8z"/>
				<path id="&lt;Path&gt;" class="s19" d="m1765.4 787.7c1.4 5.5 3 8.8 3 8.8 16.6-13 27.3-24.2 34.2-32.7-5.2-0.4-12.7-2.2-21.4-8.3-6 13-15.8 32.2-15.8 32.2z"/>
				<path id="&lt;Path&gt;" class="s22" d="m1699.3 620.7c0 0 4.5-13.6 19.1-11.5 14.6 2.1 15.8 5.3 17.4 8.9 1.5 3.6 4.5-13.2 4.5-13.2l-17.2-5.1c0 0-20.8 2.3-22.3 5.8-1.5 3.5-1.5 3.5-1.5 3.5z"/>
			</g>
			<g id="&lt;Group&gt;">
				<path id="&lt;Path&gt;" class="s10" d="m725.1 624.6c0 0 0-7.2 1-9.5 1-2.4 4.8-12.2 4.8-12.2h14.6c0 0 2.8 8.9 2.9 11.8 0.2 2.9 0 9.9 0 9.9z"/>
				<path id="&lt;Path&gt;" class="s10" d="m818.2 624.6c0 0 0-7.2-1-9.5-1.1-2.4-4.8-12.2-4.8-12.2h-14.7c0 0-2.7 8.9-2.9 11.8-0.1 2.9 0 9.9 0 9.9z"/>
				<path id="&lt;Path&gt;" class="s2" d="m759.4 221.7c0 0-0.5 15.9-2.5 23.1l-16.2 11.3 60.9 9.1-14.5-20.1c0 0-4.4-21.4-2.1-29.3 2.3-8-25.6 5.9-25.6 5.9z"/>
				<path id="&lt;Path&gt;" class="s5" d="m759.3 223.9c0 0 4.9 11.6 13.9 11.3 9.1-0.2 11.2-10.5 11.2-10.5z"/>
				<path id="&lt;Path&gt;" class="s4" d="m753.9 214.5c0 0-2.9-14.7-5-19.1-2-4.4-3.7-24.2 19-25.2 0 0 8.7 1 13.4-1.9 0 0 0 2.9-1.1 3.9 0 0 7.8-1.9 13.9 5 6.2 6.8-4.1 30.6-3.5 36.3z"/>
				<path id="&lt;Path&gt;" class="s2" d="m790.9 194.1v15.9c0 2.7-0.6 5.3-1.7 7.6-1.8 4.1-4.8 7.6-8.1 9.9-3 2.1-6.2 3.3-8.9 3.2-2.4 0-5.4-1.2-8.4-3.1-4-2.7-7.8-6.8-9.5-11.7v-0.1-0.2c-0.5-1.4-0.8-3-0.8-4.6v-16.9c0-4 2.8-7.2 6.2-7.2h25.1c3.3 0 6.1 3.2 6.1 7.2z"/>
				<path id="&lt;Path&gt;" class="s4" d="m753.5 203.1c0 0 0.1-10.2 8.1-11.7 8.1-1.6 26.1 4.9 28.7-2.5 2.5-7.4-34.9-7.3-36.8-2.5-1.9 4.7 0 16.7 0 16.7z"/>
				<path id="&lt;Path&gt;" class="s13" d="m726.9 376c0 0 2.6 78.3-1.3 123-3.8 44.7 0.1 107 0.1 107 0 0 12.2 6.7 25.5 0 0 0 14.6-86.4 14.5-107-0.1-21.8 15.9-119.6 15.9-119.6z"/>
				<path id="&lt;Path&gt;" class="s13" d="m817.7 606c0 0-12.3 6.7-25.6 0 0 0-14.6-86.4-14.5-107 0-9.2-2.8-32-6.1-55.2-4.5-31.8-9.8-64.4-9.8-64.4l56.8-3.5c0 0-4.7 78.4-0.8 123.1 3.8 44.7 0 107 0 107z"/>
				<path id="&lt;Path&gt;" class="s13" d="m817.9 389c0 0-24.3 4.7-46.4 4.7-9.6 0-20.1-1-28.4-2.2-9.2-1.2-15.8-2.5-15.8-2.5 0 0-5 0.5-2.1-23.8 2.3-18.4 1.6-35 1.1-52.1-0.1-1.9 0-4.2 0.1-6.7 0.9-20 6.9-55.9 11.5-57.8 0 0 6.9-2.6 19-3.8 0 0.2 7 10.5 15.3 11.6 5.2-2 9.2-3.7 14.9-11.3 7.2 0.9 15 2.3 23.3 4.5 0 0 0.9 3.9 4.2 69.9 1.3 26.1 10.2 69.6 3.3 69.5z"/>
				<path id="&lt;Path&gt;" class="s10" d="m743.1 391.5c-9.2-1.2-15.8-2.5-15.8-2.5 0 0-5 0.5-2.1-23.8 2.3-18.4 1.6-35 1.1-52.1-0.1-1.9 0-4.2 0.1-6.7 1.4 2.3 17.1 27.7 21.4 46.6 3 13.7-1.6 30-4.7 38.5z"/>
				<path id="&lt;Path&gt;" class="s10" d="m777.6 499c0-9.2-2.8-32-6.1-55.2 3.4-13.9 11.7-27.2 11.7-27.2 10.5 29.4-5.6 82.4-5.6 82.4z"/>
				<path id="&lt;Path&gt;" class="s13" d="m703.9 327.2c-0.6 0.5 1.4 5.5 4.4 12 6.1 13.3 16.2 33.1 16.2 33.1-1.4 5.6-3 9-3 9-17.1-13.4-28.1-24.8-35.1-33.6-9.9-12.3-11.9-19.3-11.9-19.3 38-77.4 64.7-80.2 64.7-80.2l-3.2 51.1c0 0-30.4 26.4-32.1 27.9z"/>
				<path id="&lt;Path&gt;" class="s2" d="m722.5 373.3c0 0 9.2-8.6 13-3.8 3.7 4.8 4.4 12.3 1.5 11.8-2.9-0.5-8.9-3.3-9.7-1.9-0.9 1.4-4.7 4-5.8 1.9-1.2-2.1 1-8 1-8z"/>
				<path id="&lt;Path&gt;" class="s2" d="m724.5 372.3c-1.4 5.6-3 9-3 9-17.1-13.4-28.1-24.8-35.1-33.6 5.3-0.4 13-2.3 21.9-8.5 6.1 13.3 16.2 33.1 16.2 33.1z"/>
				<path id="&lt;Path&gt;" class="s13" d="m871.3 328.4c0 0-2 7-11.9 19.3-7 8.8-18 20.2-35.1 33.6 0 0-1.6-3.4-3.1-9 0 0 10.2-19.8 16.3-33.1 3-6.5 5-11.5 4.4-12-1.4-1.1-20-17.3-28.2-24.5-2.4-2.1-4-3.4-4-3.4l-1.9-50.4c0 0 25.5 2.1 63.5 79.5z"/>
				<path id="&lt;Path&gt;" class="s2" d="m823.3 373.3c0 0-9.3-8.6-13-3.8-3.8 4.8-4.4 12.3-1.5 11.8 2.9-0.5 8.8-3.3 9.7-1.9 0.8 1.4 4.7 4 5.8 1.9 1.2-2.1-1-8-1-8z"/>
				<path id="&lt;Path&gt;" class="s2" d="m821.2 372.3c1.5 5.6 3.1 9 3.1 9 17.1-13.4 28.1-24.8 35.1-33.6-5.3-0.4-13-2.3-21.9-8.5-6.1 13.3-16.3 33.1-16.3 33.1z"/>
				<path id="&lt;Path&gt;" class="s4" d="m781.1 220.5v7c-3 2.1-6.2 3.3-8.9 3.2-2.4 0-5.4-1.2-8.4-3.1v-7.1c0-4 3.2-7.2 7.1-7.2h3c3.9 0 7.2 3.2 7.2 7.2z"/>
				<path id="&lt;Path&gt;" class="s10" d="m841.9 327.2c-1.4-1.1-20-17.3-28.2-24.5 0 0 8.2-6.2 13.3 2.9 5.2 9 14.9 21.6 14.9 21.6z"/>
				<path id="&lt;Path&gt;" class="s4" d="m789.2 217.6c-3.3 7.7-11.2 13.2-17 13.1-5.5-0.1-15-6.3-17.9-14.8v-0.1-0.2c0 0 5.9 5.1 9.9 2.6h16.5c0 0 4.4 2.5 8.5-0.6z"/>
				<path id="&lt;Path&gt;" class="s10" d="m871.3 328.4c0 0-2 7-11.9 19.3-11.4-0.1 11.9-19.3 11.9-19.3z"/>
				<path id="&lt;Path&gt;" class="s2" d="m774.2 219.6h-3.6c-0.8 0-1.8-1.3-1.8-2.1 0 0 1-0.9 1.8-0.9h3.6c0.8 0 2 0.7 2.2 1.2 0 0-0.5 1.8-2.2 1.8z"/>
			</g>
			<g id="&lt;Group&gt;">
				<g id="&lt;Group&gt;">
					<path id="&lt;Path&gt;" class="s2" d="m598 649.5l7.2 30.5 10.9-0.1 0.4-30.4z"/>
					<path id="&lt;Path&gt;" class="s2" d="m689.2 650.8l20.6 29.2 8-10.3-12.4-22.9z"/>
					<path id="&lt;Compound Path&gt;" class="s7" d="m615.2 269c-4.1-1.4-8.6-0.7-11.6 0.1 0.6-1 2.1-1.6 2.1-1.6-1.9 0.1-5.8 2.9-5.8 2.9-28.6-4.9-24.9 35-22.5 43.9 2.4 9-6.5 13.9-18.8 23.8-23.6 18.9-22.2 37.7-22.2 37.7q0.3 0.1 0.7 0.2c0.8-2.4 2.7-7.1 4.8-8.2 0 0.2-1.5 6.3-1.8 9.6 8.9 4.4 26.1 14.5 38.1 21.8-0.4-1.9-0.9-4.4-0.5-5.9l2.8 7.2c6.4 3.9 10.9 6.7 10.9 6.7-2.2-7.2 23.8-52.7 39.2-67.9 3-7.1 2.2-18.6 2.2-19.5 1 9 0.5 14.3-0.3 17.3 12.2-16.7-6.5-64.5-17.3-68.1z"/>
					<path id="&lt;Path&gt;" class="s2" d="m626.5 342.4c0.1 0-8.7 4.6-15.3 2.8-6.2-1.7-10.3-9.8-10.2-9.8 2.6-0.5 3.4-4.1 3.3-19.7l1.2 0.2 20 4c0 0-0.4 6.3-0.4 12.2-0.1 5 0.2 9.7 1.4 10.3z"/>
					<path id="&lt;Path&gt;" class="s24" d="m594.4 279.8c0 0 7.6-12.2 21.7-4.9 0 0-7.3 0.2-21.7 4.9z"/>
					<path id="&lt;Path&gt;" class="s6" d="m625.5 319.9c0 0-0.4 6.3-0.4 12.2-11.2-0.3-17.2-10.5-19.6-16.2z"/>
					<path id="&lt;Path&gt;" class="s7" d="m601.4 316.7c0 0-7.6-8-10.5-15.5-2.1-5.3-3.4-26.4 17.8-27.6 0 0 6.1-0.7 12.5 2 5.1 2.1 12.9 7.4 9.3 26.8l-0.7 6.4z"/>
					<path id="&lt;Path&gt;" class="s25" d="m715.9 663c0 0-5.4 0.9-9.7 1.2-1 0.1-1.9 0.2-2.7 0.2-2.1 0-5.9-0.8-8.4-1.4l-0.2-0.1c-1.2-0.2-2-0.5-2.3-0.5l-0.2-0.1c0 0-26.5-29.5-41.3-76.8q-0.6-1.6-1.1-3.3c-8.2-23.8-25-53.5-33.9-80.5q-2.2-6.4-3.9-12.2-0.5-1.8-1-3.6c-6.6-22.7-8.5-37.7-10.2-53.7l53.4 13.6c0 0 22.5 97.3 61.5 217.2z"/>
					<path id="&lt;Path&gt;" class="s2" d="m629 323.1c0 0-25.9 5.6-29.1-10.5-3.3-16.2-8.9-26.4 7.5-30.7 16.4-4.3 20.9 1.3 23.3 6.4 2.4 5.1 5 32.9-1.7 34.8z"/>
					<path id="&lt;Path&gt;" class="s7" d="m619.2 279.2c0 0-3.3 20.4-13.7 25.4-10.3 5-15.6 3-15.6 3 0 0 7-8.3 6.4-20.3 0 0 15.7-16.1 22.9-8.1z"/>
					<path id="&lt;Path&gt;" class="s7" d="m617.7 281.1c0 0 6.2 3.1 8.3 7 2.1 3.8 4.4 12.2 6.8 11.4 0 0 2.8-14-4.7-20-7.9-6.5-10.4 1.6-10.4 1.6z"/>
					<path id="&lt;Path&gt;" class="s2" d="m604.9 678.2c0 0 0.9 6.1-1.4 12.5 0 0-1.8 8.1 6.2 8.3 7.9 0.1 9.9-0.6 9-5.6-0.9-4.9-2.6-13.5-2.6-13.5z"/>
					<path id="&lt;Path&gt;" class="s26" d="m603.5 690.7c0 0-1.5 7.7-0.6 11.7 0 0 2.4 1.8 8.2 1.8 5.5 0 8.4-1.8 8.4-1.8 0 0 0.1-8.3-1.3-11.9 0 0-5.7 8.5-14.7 0.2z"/>
					<path id="&lt;Path&gt;" class="s2" d="m737 694.2c0 0-14.7-16.3-19.2-24.5l-10.9 5.5 24.4 22.9 5.7-0.7z"/>
					<path id="&lt;Path&gt;" class="s26" d="m746.3 703.8c0 0-15.8 0-18.5-0.3-2.7-0.3-4.9-4.2-7.8-10.1-1.2-2.4-3.9-3.7-6.6-4.4v13.5h-4.2l-3.9-14.4c-2.6-4.8-0.3-9.1 1.6-12.9 2.1 0 7.8 1.5 18.7 13.7 3.5 4 7.5 5.4 11.4 5.3q0 0.1 0.1 0.1c9 4.1 9.2 9.5 9.2 9.5z"/>
					<path id="&lt;Path&gt;" class="s27" d="m706.2 664.2c-1 0.1-1.9 0.2-2.7 0.2-2.1 0-5.9-0.8-8.4-1.4l-0.2-0.1-2.3-0.5-0.2-0.1c0 0-26.5-29.5-41.3-76.8q-0.6-1.6-1.1-3.3c-8.2-23.8-25-53.5-33.9-80.5q-2.2-6.4-3.9-12.2-0.5-1.8-1-3.6l9.4-7.1c0 0 28.4 45.9 37.2 89.2 7.3 35.8 38.6 82.3 48.4 96.2z"/>
					<path id="&lt;Path&gt;" class="s25" d="m621.6 572c0.2 21-0.9 69.4-3.6 89.4 0 0-2.6 2.3-9.1 2.3-6.6 0-9.5-2.4-9.5-2.4-6.9-34.8-11.8-63.6-15.3-88.4-2.9-20.4-5.5-37.8-7.5-52.9-1.8-13.3-3.1-24.7-3.7-34.5q-0.1-2-0.2-4-0.2-2.5-0.2-4.9-0.1-2.4 0-4.6l0.2-0.1 13.3-1.3 41.9-4c-0.7 36.8-6.4 93.2-6.3 105.4z"/>
					<path id="&lt;Path&gt;" class="s27" d="m608.9 663.7c-5.6 0.3-9.5-2.4-9.5-2.4-6.9-34.8-11.8-63.6-15.3-88.4-2.9-20.4-5.5-37.8-7.5-52.9-1.8-13.3-3.1-24.7-3.7-34.5-0.1-4.9-0.1-9.5-0.2-13.6-0.1-4-0.1-7.5-0.2-9.9l13.5 8.6 14.2 9.1c0 0-20.2 18.4-15.2 53.1 4.9 34.7 17 126 23.9 130.9z"/>
					<path id="&lt;Path&gt;" class="s1" d="m619.9 334.7c0 0 21.6-3.4 28.8 3.8 8.9 8.8 25.6 59.4 24.9 65.2-0.3 2.2-9 1.2-12-2-15-15.7-36.4-55.2-41.7-67z"/>
					<path id="&lt;Path&gt;" class="s1" d="m661.8 476c-16.1 4.2-91.2 12.4-91.8-6.4-0.2-4.6 0-10.1 0.3-16.1 1.2-18.6 4.2-41.6 5.7-54.2 0.6-5.8-1.6-31.7 0.1-45.9 0.3-2.1 0.6-3.9 1.1-5.4 3.2-10.6 17.8-13.5 25.3-13.8l22.5-0.8c0 0 23.4 26.1 26.6 34.1 3.2 8 4.3 35.4 6.8 48.6 2.5 13.3 11.2 57.8 3.4 59.9z"/>
					<path id="&lt;Path&gt;" class="s25" d="m617.5 412.4c0 0-12.6 38.5-47.2 41.1 1.2-18.6 4.2-41.6 5.7-54.2 0.6-5.8-1.6-31.7 0.1-45.9 0.5 0.1 0.9 0.4 1.3 0.5 38.1 7.3 43.5 50.5 40.1 58.5z"/>
					<path id="&lt;Path&gt;" class="s6" d="m672.5 404.6c0 0-22.7 7.5-50.3-4.5 0 0-7.5-0.7-11.2 0.3 0 0 0.8-7.5 4.4-9.5 3.7-2 19.4 2.3 24.1 1.7 10.2-1.4 28.1-2.5 33 12z"/>
					<path id="&lt;Path&gt;" class="s25" d="m652.3 387.3c0 0 2.1-18.4-5.1-29.6 0 0 2.6-0.8 4.4 2.1 1.8 2.9 14.6 30.2 8.5 32.2-6.1 2-7.8-4.7-7.8-4.7z"/>
					<path id="&lt;Path&gt;" class="s6" d="m619.2 390.3c-0.3 0.1-10.7 1.4-12.5 2.7-1.9 1.3-0.2 5.8 3.2 6.3 3.5 0.4 9.3-9 9.3-9z"/>
					<path id="&lt;Path&gt;" class="s2" d="m590.8 397.3c0 0 29.6-1.1 56.4-6.2 0 0 4.9 0 4.4 4.3-0.6 4.3-46.5 28.2-56.6 23.6z"/>
					<path id="&lt;Path&gt;" class="s2" d="m647.2 391.1c0 0 3.2-3.8 5.1-3.8 2 0 7 2.5 7.8 4.7 0.8 2.3-6 0.7-8.5 3.4-2.6 2.7-4.4-4.3-4.4-4.3z"/>
					<path id="&lt;Path&gt;" class="s1" d="m602.5 334.2c0 0-24.9 0.1-28.5 9-6.7 16.3 15.2 70.3 21 75.8 2.5 2.4 13.9-1.3 13.9-16.9 0-8.1-0.5-55.3-6.4-67.9z"/>
				</g>
			</g>
			<g id="&lt;Group&gt;">
				<g id="&lt;Group&gt;">
					<g id="&lt;Group&gt;">
						<path id="&lt;Path&gt;" class="s10" d="m482.6 344.9c0 0 23.4-8.7 33.1 10.9 9.6 19.5 1.7 36.7 12.5 43.5 10.7 6.8 14.9 15.4 14.9 28 0 12.5-5.3 14 2.5 23.2 7.8 9.2-14.6 27.4-39.2 16.1-24.5-11.4-47.8-15.3-47.8-15.3 0 0-10.7-26.5-2.4-38.2 8.3-11.7 22.4-16.8 9.3-29-13.9-12.9-8.8-39.2 17.1-39.2z"/>
						<path id="&lt;Path&gt;" class="s2" d="m437.3 510.2c-18.8-6.9-36.8-39-36.8-39l5.9-4.2c4.9 7.2 27.1 21.1 27.1 21.1 0.5-6.1 1.2-11.6 2.1-16.6 6.2-33.9 20.3-44 24-46.1 0.7-0.4 1-0.5 1-0.5q0 0 0 0.7c-0.1 1-0.2 3.1-0.4 5.9-1.5 21-7.2 84.4-22.9 78.7z"/>
						<path id="&lt;Path&gt;" class="s2" d="m528 544.8c-9.3-20.8-13.7-26.7-13.9-33.2-0.1-5.2 2.4-10.7 7.4-24.4 1.2-3.2 2-6.6 2.5-9.9 3.9-26.4-11.4-54.9-20.9-56.8-2.6-0.7-7.1-10.3-7-25.6l-1.2 0.2-20 4c0 0 0.5 6.3 0.5 12.2 0 4.9-0.3 9.6-1.4 10.2-1.4 0.1-2.3 0.2-2.3 0.2 0 0-16.6 23.1-18 44.6-1.4 21.5 13.3 30.8-0.1 73.8-13.8 43.9 79.5 16.2 74.4 4.7z"/>
						<path id="&lt;Path&gt;" class="s28" d="m474.9 399.1c0 0 0.5 6.3 0.5 12.2 11.2-0.3 17.1-10.5 19.5-16.2z"/>
						<path id="&lt;Path&gt;" class="s2" d="m471.2 404.7c0 0 26.4 0.4 26.5-16 0-16.5 3.4-27.5-13.5-28.5-16.8-1-20.1 5.3-21.5 10.8-1.3 5.5 1.6 33.1 8.5 33.7z"/>
						<path id="&lt;Path&gt;" class="s10" d="m470.6 359c0 0 8.8 20.1 19.9 23 11.1 2.8 15.9-0.2 15.9-0.2 0 0-8.5-6.7-10.2-18.5 0 0-20.1-13.5-25.6-4.3z"/>
						<path id="&lt;Path&gt;" class="s10" d="m474 361.4c0 0-2.3-0.4-6 3.6-3 3.2-5.3 10.2-5.2 17.4 0 0-5.4-13.1 0.7-20.6 6.5-7.8 10.5-0.4 10.5-0.4z"/>
						<path id="&lt;Path&gt;" class="s7" d="m504.6 744.2c-6.7 26.5-16.7 46.7-16.7 46.7l-8.7-0.6c0 0 4.3-20.3 4-47.8-0.2-19.2-2.5-41.9-10.1-63.5-26.1-74.5-21.9-128.7-21.9-128.7l49.1 5.7 2.2 0.3c0.2 22.5 0.8 53.1 1.3 77 0.5 21.5 0.9 37.6 0.9 37.6 9.4 20.3 6 49-0.1 73.3z"/>
						<path id="&lt;Path&gt;" class="s2" d="m562.3 566.9l-7.9 2.4c0 0-26.2-43.5-28.6-54.8-0.7-3.6-2.6-11-4.9-19.2-4.5-17.1-10.5-38-10.5-38l-1.9-8.5-6.7-28.8c0 0 12.8 1.3 20.2 4.4 2.5 1 4.4 2.3 5 3.7 5.5 12 11 42.5 14.8 64.2 2.2 12.1 3.8 21.4 4.7 23.4 2.3 5.6 9.6 36.1 15.8 51.2z"/>
						<path id="&lt;Path&gt;" class="s0" d="m532.7 740c-2.8 30.1-15.2 49.5-15.2 49.5l-4.2 3.1c0 0-3.9-21.2-6.7-46.4-2.7-24-6.3-49.4-10.4-57.1-16.4-30.7-21.3-146.7-21.3-146.7l49.7-2.4c5 8.4 7.2 22.2 7.7 37.9 1.3 39.5-8 91.1-9.4 98.6q0 0 0 0c-0.1 0.6 0.1 1.1 0.3 1.6 9.9 19.6 11.4 42 9.5 61.9z"/>
						<path id="&lt;Path&gt;" class="s10" d="m473 362c0 0 5.1 20.2 19.1 26.7 0 0-14-12.4-15.2-25.8-1.1-13.3-3.9-0.9-3.9-0.9z"/>
						<path id="&lt;Path&gt;" class="s2" d="m561.8 565.6c0 0 2.4 5.6 4.9 7.2 2.5 1.6 6.1 5.4 5.4 8.5-0.7 3-1.3 7.8-4.5 7.8-3.2 0-10.6-14-11.5-16.7-0.9-2.6-1.7-3.1-1.7-3.1z"/>
						<path id="&lt;Path&gt;" class="s2" d="m406.4 467c0-0.8 0.7-12.6-1.4-15.1-2.1-2.5-6.4-6-7.8-5.9-1.3 0.1-6.6 7.1-5 12.5 1.6 5.4 8.3 12.7 8.3 12.7z"/>
						<g id="&lt;Group&gt;">
							<path id="&lt;Path&gt;" class="s8" d="m416 452.6l-12.2 3.6c-0.4 0.2-0.8-0.1-1-0.5l-6.9-23.3c-0.2-0.4 0.1-0.8 0.5-1l12.2-3.6c0.4-0.1 0.8 0.1 1 0.5l6.9 23.3c0.2 0.4-0.1 0.9-0.5 1z"/>
							<path id="&lt;Path&gt;" class="s9" d="m412.9 453.5l-11.1 3.4c-0.8 0.2-1.5-0.2-1.7-1l-6.7-22.1c-0.2-0.8 0.2-1.5 0.9-1.7l11.1-3.4c0.7-0.2 1.5 0.2 1.7 0.9l6.7 22.2c0.2 0.8-0.2 1.5-0.9 1.7z"/>
						</g>
						<g id="&lt;Group&gt;">
							<path id="&lt;Path&gt;" class="s10" d="m492.9 798.3h-5.5c-1.9-0.3-3.3-0.9-5.2-1.1-2.9-0.4-4.2 0.8-4.5 1.1q0 0 0 0h-23.7c-0.6-0.8 0-2.8 0.6-4.3 0.3-0.9 1.2-1.7 2.2-2 2.5-0.7 7.4-1.3 11.9-5.4 2.6-2.3 12.3-8.5 12.3-8.5h0.1c0.2 0 1.2 0.3 5.7 4 2.2 2 6.1-2.7 6.1-2.7 0 0 0.8 0.6 1.3 1.8 0.5 0.8 0.8 2.1 0.5 3.6-0.3 2.1 0.8 6.1 1.7 8.7 0.6 1.7 1 2.8 1 2.8 0 0 0.3 1.4-4.5 2z"/>
							<path id="&lt;Path&gt;" class="s16" d="m494.2 781.2c-1.3 0.9-4.1 2.7-6 3-2.5 0.3-7.2-6.1-7.2-6.1h0.1c0.2 0 1.2 0.3 5.7 4 2.2 2 6.1-2.7 6.1-2.7 0 0 0.8 0.6 1.3 1.8z"/>
							<path id="&lt;Path&gt;" class="s16" d="m492.9 798.3h-5.5c-1.9-0.3-3.3-0.9-5.2-1.1-2.9-0.4-4.2 0.8-4.5 1.1q0 0 0 0h-23.7c-0.6-0.8 0-2.8 0.6-4.3 0.7-0.6 0.9 2.8 1.3 3.4 0.4 0.5 19.3 0.2 20.3-0.6 1.1-0.8 4.4-2.2 9-1.1 3.9 0.9 9.8-1.5 11.2-2.2 0.6 1.7 1 2.8 1 2.8 0 0 0.3 1.4-4.5 2z"/>
						</g>
						<g id="&lt;Group&gt;">
							<path id="&lt;Path&gt;" class="s10" d="m522.6 798.3h-5.6c-1.8-0.3-3.2-0.9-5.1-1.1-2.9-0.4-4.2 0.8-4.5 1.1q-0.1 0-0.1 0h-23.6c-0.6-0.8 0-2.8 0.5-4.3 0.4-0.9 1.2-1.7 2.3-2 2.5-0.7 7.4-1.3 11.9-5.4 2.6-2.3 12.3-8.5 12.3-8.5h0.1c0.2 0 1.2 0.3 5.6 4 2.3 2 6.2-2.7 6.2-2.7 0 0 0.8 0.6 1.3 1.8 0.5 0.8 0.8 2.1 0.5 3.6-0.3 2.1 0.8 6.1 1.7 8.7 0.6 1.7 1 2.8 1 2.8 0 0 0.3 1.4-4.5 2z"/>
							<path id="&lt;Path&gt;" class="s16" d="m523.9 781.2c-1.3 0.9-4.1 2.7-6 3-2.5 0.3-7.2-6.1-7.2-6.1h0.1c0.2 0 1.2 0.3 5.6 4 2.3 2 6.2-2.7 6.2-2.7 0 0 0.8 0.6 1.3 1.8z"/>
							<path id="&lt;Path&gt;" class="s16" d="m522.6 798.3h-5.6c-1.8-0.3-3.2-0.9-5.1-1.1-2.9-0.4-4.2 0.8-4.5 1.1q-0.1 0-0.1 0h-23.6c-0.6-0.8 0-2.8 0.5-4.3 0.8-0.6 1 2.8 1.4 3.4 0.4 0.5 19.2 0.2 20.3-0.6 1.1-0.8 4.4-2.2 9-1.1 3.9 0.9 9.8-1.5 11.2-2.2 0.6 1.7 1 2.8 1 2.8 0 0 0.3 1.4-4.5 2z"/>
						</g>
						<path id="&lt;Path&gt;" class="s2" d="m396.2 446.8c0 0 3.8-3.5 7-0.2 3.1 3.3-1.2 9.3-4.4 10.7-3.2 1.4-4.2 2.2-4.2 2.2z"/>
						<path id="&lt;Path&gt;" class="s11" d="m521.1 496.2c2.9 0.7 12.4 2.5 23.2-3.5-4.4-21.8-10.8-52.4-17.2-64.6q-0.5-0.9-1.6-1.6 0.1-0.1 0.1-0.1c-6-4.4-18.2-5.7-18.2-5.7 0 0-3.8 16.7-6.1 18.9-2.4 2.2-36.9 5.7-37.7 1.8-0.8-3.8 9-18.5 9.7-19.8 0-0.1-1.6 0.1-1.6 0.1-3.9 0.5-6.7 0.9-8.7 1.2-3.9 0.7-4.9 1.2-5.9 1.9q-0.3 0.4-0.6 0.7c-4.7 3.6-15.6 14.4-19.9 40.4 0 0 5.4 7.4 13 9.6q0.3 0 0.7 0.1c-1.4 22.1-9.5 58.8-6.6 80 2.8 20.4 45.8 15.2 54.3 13.3q8.8-1.9 13.6-18.4c1.1 7.7 3.4 16.7 8.8 17.2 8.8 0.9 12.4-0.6 13.5-3.9q0.4-1.5 0.3-4c-0.6-11.5-9.3-38.5-13.1-63.6z"/>
					</g>
				</g>
				<path id="&lt;Path&gt;" class="s29" d="m476.4 394.9c0 0-0.5 1.9-5.3 1.6 0 0-4.1-0.2-3.9-2.3 0 0 3.9-1.5 9.2 0.7z"/>
			</g>
			<path id="Shape 1" class="s29" d="m999.5 1467c-258.5 0-467.5-209-467.5-467.5 0-258.5 209-467.5 467.5-467.5 258.5 0 467.5 209 467.5 467.5 0 258.5-209 467.5-467.5 467.5z"/>
			<g id="&lt;Group&gt;">
				<path id="&lt;Path&gt;" class="s10" d="m1453.9 793.2c0 0 0-7 1-9.3 1-2.3 4.6-11.8 4.6-11.8h14.3c0 0 2.7 8.6 2.8 11.5 0.2 2.8 0 9.6 0 9.6z"/>
				<path id="&lt;Path&gt;" class="s10" d="m1544.6 793.2c0 0 0-7-1-9.3-1-2.3-4.6-11.8-4.6-11.8h-14.3c0 0-2.7 8.6-2.8 11.5-0.2 2.8 0 9.6 0 9.6z"/>
				<path id="&lt;Path&gt;" class="s2" d="m1487.4 400.4c0 0-0.5 15.5-2.5 22.5l-15.8 11 59.4 8.9-14.2-19.5c0 0-4.2-20.9-2-28.7 2.2-7.7-24.9 5.8-24.9 5.8z"/>
				<path id="&lt;Path&gt;" class="s5" d="m1487.3 402.5c0 0 4.7 11.3 13.5 11.1 8.9-0.3 10.9-10.3 10.9-10.3z"/>
				<path id="&lt;Path&gt;" class="s22" d="m1482 393.4c0 0-2.9-14.3-4.9-18.6-2-4.4-3.6-23.7 18.5-24.7 0 0 8.5 1 13.1-1.8 0 0 0 2.8-1.1 3.8 0 0 7.6-1.8 13.6 4.9 6 6.6-4 29.9-3.5 35.4z"/>
				<path id="&lt;Path&gt;" class="s2" d="m1499.8 409.2c-6.4-0.1-18.2-8.7-18.2-19.2v-16.5c0-3.9 2.7-7.1 6-7.1h24.5c3.2 0 5.9 3.2 5.9 7.1v15.5c0 11.1-10.8 20.3-18.2 20.2z"/>
				<path id="&lt;Path&gt;" class="s22" d="m1481.6 382.3c0 0 0-9.9 7.9-11.5 7.8-1.5 25.4 4.9 27.9-2.4 2.5-7.2-34-7.1-35.8-2.5-1.8 4.7 0 16.4 0 16.4z"/>
				<path id="&lt;Path&gt;" class="s13" d="m1455.7 550.8c0 0 2.5 76.4-1.3 120-3.7 43.6 0 104.2 0 104.2 0 0 12 6.6 25 0 0 0 14.2-84.2 14.1-104.2-0.1-21.3 15.5-116.6 15.5-116.6z"/>
				<path id="&lt;Path&gt;" class="s13" d="m1544.1 775c0 0-11.9 6.6-24.9 0 0 0-14.2-84.2-14.1-104.2 0-9-2.7-31.2-5.9-53.9-4.4-31-9.6-62.7-9.6-62.7l55.4-3.5c0 0-4.6 76.5-0.8 120.1 3.7 43.6-0.1 104.2-0.1 104.2z"/>
				<path id="&lt;Path&gt;" class="s15" d="m1544.3 563.5c0 0-23.6 4.6-45.1 4.6-9.4 0-19.6-1-27.8-2.1-9-1.2-15.4-2.5-15.4-2.5 0 0-4.8 0.4-2-23.2 2.2-17.9 1.5-34.1 1-50.8 0-1.9 0-4.1 0.1-6.5 0.9-19.5 6.8-54.5 11.3-56.4 0 0 6.7-2.5 18.5-3.7 0 0.3 6.8 10.3 14.9 11.4 5.1-2 9-3.7 14.5-11 7 0.8 14.6 2.2 22.8 4.3 0 0 0.8 3.8 4 68.1 1.3 25.5 10 67.9 3.2 67.8z"/>
				<path id="&lt;Path&gt;" class="s30" d="m1471.4 566c-9-1.2-15.4-2.5-15.4-2.5 0 0-4.8 0.4-2-23.2 2.2-17.9 1.5-34.1 1-50.8 0-1.9 0-4.1 0.1-6.5 1.4 2.2 16.7 27 20.9 45.4 3 13.4-1.6 29.2-4.6 37.6z"/>
				<path id="&lt;Path&gt;" class="s10" d="m1505.1 670.8c0-9-2.7-31.2-5.9-53.9 3.3-13.5 11.4-26.5 11.4-26.5 10.2 28.7-5.5 80.4-5.5 80.4z"/>
				<path id="&lt;Path&gt;" class="s15" d="m1433.2 503.2c-0.6 0.5 1.4 5.4 4.3 11.7 6 13.1 15.8 32.3 15.8 32.3-1.4 5.4-3 8.8-3 8.8-16.6-13.1-27.3-24.2-34.2-32.7-9.6-12-11.6-18.9-11.6-18.9 37.1-75.4 63.1-78.2 63.1-78.2l-3 49.8c0 0-29.7 25.8-31.4 27.2z"/>
				<path id="&lt;Path&gt;" class="s2" d="m1451.4 548.2c0 0 8.9-8.4 12.6-3.7 3.7 4.7 4.3 12 1.5 11.5-2.8-0.5-8.6-3.2-9.5-1.9-0.8 1.4-4.5 3.9-5.7 1.9-1.1-2 1.1-7.8 1.1-7.8z"/>
				<path id="&lt;Path&gt;" class="s2" d="m1453.3 547.2c-1.4 5.4-3 8.8-3 8.8-16.6-13.1-27.3-24.2-34.2-32.7 5.2-0.4 12.7-2.3 21.4-8.4 6 13.1 15.8 32.3 15.8 32.3z"/>
				<path id="&lt;Path&gt;" class="s15" d="m1596.4 504.4c0 0-1.9 6.9-11.6 18.9-6.8 8.5-17.5 19.6-34.2 32.7 0 0-1.6-3.4-3-8.8 0 0 9.9-19.2 15.9-32.3 2.8-6.3 4.8-11.2 4.3-11.7-1.4-1.1-19.5-16.8-27.6-23.8-2.3-2.1-3.8-3.4-3.8-3.4l-1.9-49.1c0 0 24.9 2.1 61.9 77.5z"/>
				<path id="&lt;Path&gt;" class="s2" d="m1549.6 548.2c0 0-9-8.4-12.7-3.7-3.6 4.7-4.3 12-1.4 11.5 2.8-0.5 8.6-3.2 9.4-1.9 0.9 1.4 4.6 3.9 5.7 1.9 1.1-2-1-7.8-1-7.8z"/>
				<path id="&lt;Path&gt;" class="s2" d="m1547.6 547.2c1.4 5.4 3 8.8 3 8.8 16.7-13.1 27.4-24.2 34.2-32.7-5.1-0.4-12.7-2.3-21.3-8.4-6 13.1-15.9 32.3-15.9 32.3z"/>
				<path id="&lt;Path&gt;" class="s13" d="m1567.8 503.2c-1.4-1.1-19.5-16.8-27.6-23.8 0 0 8.1-6.1 13.1 2.8 5 8.8 14.5 21 14.5 21z"/>
				<path id="&lt;Path&gt;" class="s13" d="m1596.4 504.4c0 0-1.9 6.9-11.6 18.9-11.1-0.2 11.6-18.9 11.6-18.9z"/>
				<path id="&lt;Path&gt;" class="s21" d="m1485.7 419.1c0 0-2.6 1.1-3.4 4.1 0 0 10.6 10.9 17.5 11.1z"/>
				<path id="&lt;Path&gt;" class="s21" d="m1499.8 434.3l13.7-15.7c0 0 2.8 1.8 2.8 4.9 0 0-10.6 11.2-16.5 10.8z"/>
				<path id="&lt;Path&gt;" class="s21" d="m1497.4 433.1c0 0-10.5 90-6.8 101 1.8 5.7 4.3 10.6 6.3 14 1.4 2.4 5 2.4 6.4 0 2.8-4.9 6.4-11.8 6.4-15.3 0-5.8-7.9-99.8-7.9-99.8z"/>
				<path id="&lt;Path&gt;" class="s14" d="m1494.6 428.7c0 0 6.3-0.6 10.2-0.2 0.7 0 1.1 0.9 0.8 1.5-1.1 2-3.3 5.3-5.6 5.3-3.2 0-8.2-6.4-5.4-6.6z"/>
			</g>
			<g id="&lt;Group&gt;">
				<path id="&lt;Path&gt;" class="s10" d="m1283.5 1298c0 0-7.5-21.2-7.9-26.7-0.4-5.5 2.1-21.4 20.4-23.1 18.4-1.7 25.2-3.6 25.2-3.6l-3.5 4.1c0 0 5.1-1.6 10.4 1.9 5.3 3.5 8 13.8 7.2 22.7-0.8 8.9-7.7 18.7-7.8 22.4-0.1 3.6-44 2.3-44 2.3z"/>
				<path id="&lt;Path&gt;" class="s31" d="m1233.4 1517.8c0 0-0.4 4.8-5.4 15.3 0 0-2.3 7.2 12.8 17.9 15.2 10.8 0.4-33.2 0.4-33.2z"/>
				<path id="&lt;Path&gt;" class="s31" d="m1286.9 1330.8c0 0-8.5 45.5-17.8 93-10 51.7-21 105.8-23 106.4-3.8 1.3-9.6-3.7-12.1-10-2-5-5.5-46.8-3.1-73.8 0.5-6.5 1.2-11.9 2-15.3 3.7-17 4.9-77.3 16.3-86.8 11.3-9.5 37.7-13.5 37.7-13.5z"/>
				<path id="&lt;Path&gt;" class="s11" d="m1286.9 1330.8c0 0-4.9 26.2-11.3 59.7-2 10.6-4.2 21.9-6.5 33.3-9 17.9-16.8 30-19.2 27.7-5-4.7-13.6-5.2-19-5.1 0.5-6.5 1.2-11.9 2-15.3q0.4-2 0.8-4.8c3.2-21.4 5-73.3 15.5-82 11.3-9.5 37.7-13.5 37.7-13.5z"/>
				<path id="&lt;Path&gt;" class="s32" d="m1275.6 1390.5c-2 10.6-4.2 21.9-6.5 33.3-9 17.9-16.8 30-19.2 27.7-5-4.7-13.6-5.2-19-5.1 0.5-6.5 1.2-11.9 2-15.3q0.4-2 0.8-4.8l27.2-65.7z"/>
				<path id="&lt;Path&gt;" class="s31" d="m1324.6 1330.2c0.2-9.2 0.1-20.2-1.2-29.4l-36.6 5.9c0 0 0 11.2 0.1 23.6q0 0 0 0c0 0-1 11.5 13.2 13.2 14.2 1.7 24.9-4.5 24.5-13.3z"/>
				<path id="&lt;Path&gt;" class="s33" d="m1286.7 1309c0 0 8.6 17.7 18.5 17.7 9.9 0 19.2-16.6 19.2-16.6z"/>
				<path id="&lt;Path&gt;" class="s10" d="m1311.1 1815.7c0 0 1.3-10.4 4.4-16.6 3.1-6.1 22.7-2.2 22.7-2.2 0 0 4 3.4 4.8 19.1z"/>
				<path id="&lt;Path&gt;" class="s10" d="m1244.2 1815.6c4.6-2.9 2-23.9 2-23.9 0 0-21.5-17.2-24.5-4-3 13.2-20.4 19.1-30.4 20.7-6.8 1.1-9 4.9-9.6 7.2z"/>
				<path id="&lt;Path&gt;" class="s31" d="m1287.9 1310.3c3.5 2.8 14 5.6 17 5.9 0 0 15.5-3.4 18.3-5.1 4.3-2.7 4-8 4.3-15.4 0.2-8.8 1.1-15.7 0.1-20.8-1.1-6.1-5-9.5-15.7-10.5-19.8-1.7-28 3.3-28.4 9.9q-0.1 2.7-0.2 5.1c-0.8 20.6 0.8 28 4.6 30.9z"/>
				<path id="&lt;Path&gt;" class="s13" d="m1288.7 1659.4c-0.9 4.8-1.4 8.8-1.6 11.6-2 39-32.8 128.2-38.3 130.2-8.5 3.3-22-3.6-29-5.8-2.9-0.9-4.9-3.9-4.2-6.9 15.2-70.1 20.9-171.2 22.9-231 1-30.2 6.2-51 6.2-51 0 0 75.2-20 75.6 5.3 0.4 22.5-24.9 110.5-31.6 147.6z"/>
				<path id="&lt;Path&gt;" class="s10" d="m1288.7 1659.4l-50.2-101.9c1-30.2 6.2-51 6.2-51 0 0 75.2-20 75.6 5.3 0.4 22.5-24.9 110.5-31.6 147.6z"/>
				<path id="&lt;Path&gt;" class="s13" d="m1272 1511.9l39.7 288.1c0 0 17.5 4.2 31.1 0.8 0 0 11.6-153.2 10.6-190.2-0.9-37.1 8.4-99.1-2.1-106-10.5-6.8-79.3 7.3-79.3 7.3z"/>
				<path id="&lt;Path&gt;" class="s34" d="m1357 1504.6c0.2 3.4-2.5 6.1-5.8 6.2l-62.7 1-46 0.7c-2.1 0 4.7-17.2 4.8-129.6 0.1-25.1 38.9-52.1 39.6-52.1 0 3.6 5.7 10.3 14.5 10.9 10.4 0.7 23.1-4.5 23.1-10.5 0-0.1 1.2 1.2 3.2 4.1 5.2 7.5 15.7 26 22.3 58.1 5.3 25.4 3.3 59.3 7.1 103 0.2 3.2-0.2 6-0.1 8.2z"/>
				<path id="&lt;Path&gt;" class="s11" d="m1354.7 1511.1c0 0-8.3 3.8-23.9 7-11.6 2.4-27.1 4.5-46.3 4.7-30.4 0.1-42-10.3-42-10.3-2.1 0 4.7-17.2 4.8-129.6 0.1-25.1 38.9-52.1 39.6-52.1 0 0-1 33.4 9.1 43.2 0 0 14.2-10.9 32.6-42.1 5.2 7.6 14.8 29.4 21.4 61.5 1.4 6.5 2.3 13.6 2.9 21.3 1.7 22.2 1.4 49.3 4.2 81.7 0.2 3.2-0.2 6-0.1 8.2 0.2 3.4 1 6.5-2.3 6.5z"/>
				<path id="&lt;Path&gt;" class="s32" d="m1354.7 1511.1c0 0-8.3 3.8-23.9 7-4.9-7.5-11.1-21-11.9-42.2-1.5-35.9 32.7-82.2 32.7-82.2l1.3 21c1.7 22.2 1.4 49.3 4.2 81.7 0.2 3.2-0.2 6-0.1 8.2 0.2 3.4 1 6.5-2.3 6.5z"/>
				<path id="&lt;Path&gt;" class="s13" d="m1371.2 1469.3l-58.2 33.6-46-79.8 58.1-33.6z"/>
				<path id="&lt;Path&gt;" class="s31" d="m1380.3 1464.1c0 0-11.9 1.2-32.3-0.9-14.7-1.5-33.8-4.7-55.9-11.3l6.4-11.1c0 0 26.6-1.2 46-4 4.8-0.7 9.2-1.5 12.7-2.4 4.2-1.2-16.8-54.3-27.3-85.6-2.6-7.4-4.5-13.7-5.4-17.6 0 0 1.9 0.3 4.8 0.9 8.2 1.6 25 5.4 32.1 10.8 9.6 7.3 33.7 89.4 18.9 121.2z"/>
				<path id="&lt;Path&gt;" class="s11" d="m1380.3 1464.1c0 0-11.9 1.2-32.3-0.9 1.2-5.6 2.2-16.4-3.5-26.4 4.8-0.7 9.2-1.5 12.7-2.4 4.2-1.2-16.8-54.3-27.3-85.6-0.9-10.1-1.3-16.9-1.3-16.9l0.7 0.2c8.2 1.6 25 5.4 32.1 10.8 9.6 7.3 33.7 89.4 18.9 121.2z"/>
				<path id="&lt;Path&gt;" class="s32" d="m1296 1374c0 0 28.4-12.5 28.8-13.4 0.4-1-1.4-8.6-3.4-10.8 0 0 13.6 1.2 14.5-0.5 0.8-1.6 1.1-15.7 1.1-15.7 0 0-5.3-5.6-12.4-6.1 0 0-6.1 15.2-8.4 19.7-6 12.1-20.2 26.8-20.2 26.8z"/>
				<path id="&lt;Path&gt;" class="s32" d="m1289.3 1349.3c0 0 1.8 14.6 6.7 24.7 0 0-14.8-10.3-16-13.6-1.3-3.4 3.5-9.9 3.5-9.9 0 0-8.8-0.2-9-3.2-0.2-2.9 2.7-14.5 2.7-14.5 0 0 7.6-5.6 9.7-5.4z"/>
				<path id="&lt;Path&gt;" class="s10" d="m1283.1 1286c0 0 0.8-13.2 9-13.3 8.1-0.2 22.3-1 28.3-6.5 5.9-5.6-35.2-3.1-35.2-3.1 0 0-4.9 15.9-2.1 22.9z"/>
				<path id="&lt;Path&gt;" class="s10" d="m1315.9 1268.1c0 0 10.7 4.4 12.2 11.1 0 0 3.5-24.9-12.2-11.1z"/>
				<path id="&lt;Path&gt;" class="s31" d="m1298.5 1440.8c0 0-6.2-7.6-6.4-9.4-0.3-1.8-12.7-8.3-11.9-5.4 0.7 2.4 5.9 6.6 5 7.3-0.9 0.6-15.5-8.1-16.2-6.5-1.2 2.4 5.7 13.9 7.7 16.7 2 2.9 15.4 8.4 15.4 8.4z"/>
			</g>
			<g id="&lt;Group&gt;">
				<path id="&lt;Path&gt;" class="s4" d="m631.7 1186.7c0 0-26.9 0.1-35 25.5-8 25.4-16.9 88-32.2 100.9 0 0 82.8 43.3 119.9 13.3 0 0 16.1-136.6-52.7-139.7z"/>
				<path id="&lt;Path&gt;" class="s13" d="m708.4 1614.8c-4.3 11-26.2 33.5-48.8 54.8-27 25.5-55 49.1-55 49.1 0 0-12.8 3.9-7.2-14.9 0 0 30.8-56.6 44.1-73.3 3.8-4.8 7.7-9.2 11.3-13 9.2-9.5 16.8-15.4 16.8-15.4 0 0-1.8-2.8-4.6-7.6-13.7-23.6-53.2-95.7-41-127.8 14.7-38.5 51.1-55.9 51.1-55.9 0 0 11.6 48.8 21.4 99 9 46.2 16.4 93.5 11.9 105z"/>
				<path id="&lt;Path&gt;" class="s10" d="m696.5 1509.8c-6.7 30.9-18.4 74.6-31.5 84.7-13.7-23.6-53.2-95.7-41-127.8 14.7-38.5 51.1-55.9 51.1-55.9 0 0 11.6 48.8 21.4 99z"/>
				<path id="&lt;Path&gt;" class="s10" d="m659.6 1669.6c-27 25.5-55 49.1-55 49.1 0 0-12.8 3.9-7.2-14.9 0 0 30.8-56.6 44.1-73.3 3.8-4.8 7.7-9.2 11.3-13-0.4 14.5 0 39 6.8 52.1z"/>
				<path id="&lt;Path&gt;" class="s2" d="m691.2 1483.6c0 0-32-80.2-30.3-82.6 1.1-1.4 3.1-45.2 4.5-78.1 0.8-20.1 1.4-36.1 1.4-36.1 0 0 14.2 5.1 17.6 39.6 0.7 6.6 1 12.9 1.3 18.7 0.9 24.5-0.9 41.7 2.8 49.9 4.5 10.1 2.9 56.2 4.3 60.8 1.4 4.7 8.6 16.3-1.6 27.8z"/>
				<path id="&lt;Path&gt;" class="s13" d="m665.9 1430.1l-2.5-9.4c-18 7.8-70.8-3.6-70.8-3.6 0 0-15.7 18.7-7.6 56.5 4 18.5 17.9 97.3 23.7 120.4 2 8.4 3.6 14.3 4.3 16.7q0 0 0 0c0.2 0.8 0 1.5-0.2 2.2-2.5 6-4.3 12.2-5.6 18.4-13.1 61.2 22.7 128.8 22.7 128.8l6.1-3.6c0 0 2.4-81.5 8.7-118.4 1.1-6.2 2.3-11.2 3.6-14.2 3.8-8.9 6.5-22.9 8.4-39.4 3.6-31.1 4.2-71 4-101.7 0.6 0 5.2-52.7 5.2-52.7z"/>
				<path id="&lt;Path&gt;" class="s2" d="m584.9 1440.1c-7.3-11 17.8-56.2 16.9-60.4-1.8-8.4-5.9-17.7-9.9-26.1-4.1-8.3-8.1-15.7-9.5-20.4 1.3-1.8 2.6-3.5 3.8-5.1 1.8-2.5 3.3-4.7 4.3-6.8 1.2-2.4 1.6-4.5 1.1-6.6q-0.6-2.3-1.6-4.7-0.5-1-1-2.1c-3.8-7.5-9.3-13.5-9.3-13.5 8.8-5.7 22.7-8.6 22.8-8.2 1-0.3 1.9-0.5 2.7-0.7q0.8-0.2 1.5-0.4c1.8-0.4 3.5-0.8 5.1-1.1 3.1-3.1 6.9-14.9 5.8-32.3l1.5 0.2 25.7 3.5c0 0-0.1 8 0.4 15.6 0.3 5.8 1 11.4 2.3 12.6 2 0.2 3.2 0.3 3.2 0.3q0 0 0 0 0 0.1 0 0.1 2.2 0.2 4 0.4 0 0 0.3 0 3.4 0.4 5.7 0.8 0.1 0.1 0.3 0.1c4.4 0.8 5.8 1.5 5.8 1.5v0.1c-0.2 8.1 12.9 22.3 12 40.6-0.1 0.7-6.7 48.7-6.7 49.4 0.6 13.6 7.3 52.1 7.3 52.1 6.1 11.9-90.6 22.5-94.5 11.1z"/>
				<path id="&lt;Path&gt;" class="s5" d="m644.8 1255.4c0 0-0.1 8 0.4 15.6-14.3 0.4-22.6-12.1-26.1-19.1z"/>
				<path id="&lt;Path&gt;" class="s2" d="m650 1262.2c0 0-33.6 2.7-34.9-18.3-1.3-20.9-6.5-34.7 14.9-37.2 21.3-2.6 26 5.2 28.2 12 2.1 6.9 0.5 42.3-8.2 43.5z"/>
				<path id="&lt;Path&gt;" class="s4" d="m656.4 1207.2c-5.5-6-9.4-4.4-11.5-2.4-19-9-29.9 6.7-29.9 6.7-1.3 15.2-11.6 24.4-11.6 24.4 0 0 6.3 3.4 20.2-1.1 4.3-1.3 8-4.6 11-8.5-5.1 9.9-12.5 17.3-12.5 17.3 16.4-8.9 21.7-32.7 22.3-35.3 2.1 1.7 6.4 5.5 7.9 9.4 2 5.2 3.4 16.1 6.6 15.5 0 0 5.9-17.1-2.5-26z"/>
				<path id="&lt;Path&gt;" class="s10" d="m670 1762.1h-52.1c0 0-1.9-8.4 1.5-14 3-5 1.1-8.4-0.2-12.7 2.4 1 5.2 2.5 8.6 2.3 2.6-0.1 6.6-2 9-3.4 2.3 2.5 10.6 14.2 13.6 16.3 3.4 2.5 18.6 1.6 19.6 11.5z"/>
				<path id="&lt;Path&gt;" class="s10" d="m592.6 1760.8l-19.6-48.2c0 0 6.9-5 13.4-3.9 5.8 0.9 8-1.3 11-4.9 0 2.6 0.3 5.7 1.8 8.8 1.1 2.3 3.2 4.4 5.4 6.1-1.5 3.1-8 16-8.8 19.6-1 4.1 5.5 17.8-3.2 22.5z"/>
				<path id="&lt;Path&gt;" class="s11" d="m607.6 1445c-12.3-0.1-21.5-1.5-22.7-4.9-7.3-11 17.8-56.2 16.9-60.4-1.8-8.4-5.9-17.7-9.9-26.1-2.7-5.4-5.3-10.5-7.2-14.7-1-2.2-1.8-4.1-2.3-5.7 1.3-1.8 2.6-3.5 3.8-5.1 1.8-2.5 3.3-4.7 4.3-6.8 1.2-2.3 1.6-4.5 1.1-6.6q-0.6-2.3-1.6-4.7-0.5-1-1-2.1c-3.8-7.5-9.3-13.5-9.3-13.5 7.2-6.1 24.7-8.7 25.5-8.9q0.8-0.2 1.5-0.4c0.2 0.3 7.5 22.3 20.7 22.1 13.2-0.2 33.3-0.8 33.5-2.9 0.1-2.1-6.2-19.9-6.2-19.9q0 0 0.3 0c0.8 0.1 3.1 0.3 5.7 0.8q0.1 0.1 0.3 0.1c2 0.4 4.1 0.9 5.8 1.6-0.2 8.1 12.9 22.3 12 40.6-0.1 0.7-6.7 48.7-6.7 49.4 0.6 13.7 7.3 52.1 7.3 52.1 4.3 8.4-42.4 16.1-71.8 16z"/>
				<path id="&lt;Path&gt;" class="s11" d="m689.1 1344.6c-9.1 4.3-21.4 3.8-21.4 3.8 0 0 0.8-13.5-2.3-25.5 0.8-20.1-10.3-38.1-1.4-36.9 21 2.8 24.9 52.8 25.1 58.6z"/>
				<path id="&lt;Path&gt;" class="s35" d="m607.6 1445c-12.3-0.1-21.5-1.5-22.7-4.9-7.3-11 17.8-56.2 16.9-60.4-1.8-8.4-5.9-17.7-9.9-26.1-2.7-5.4-5.3-10.5-7.2-14.7 1-4.1 1.6-6.5 1.6-6.5 0 0 26.7 31 32.8 45.7 4.8 11.4-6.4 50.5-11.5 66.9z"/>
				<path id="&lt;Path&gt;" class="s2" d="m595 1424l-5.3 9.1c-33.9-13.4-55.5-43.7-55.5-43.7-1.2-17.2 6.9-36.9 16.5-53.9q2.4-4.3 4.9-8.3c6.8 5.9 16.3 13.5 25.3 19-1.4 2.3-3 5.1-4.9 8.1-7.5 12.4-17.2 28.3-18.5 29.5-2.1 2.1 37.5 40.2 37.5 40.2z"/>
				<path id="&lt;Path&gt;" class="s2" d="m595 1424c0 0 2.8-0.4 4.7-2.1 1.8-1.6 7.8-6.2 8.1-4.8 0.4 1.5-4.3 3.7-1.8 4 2.4 0.4 6.2-1.3 10.1-0.7 3.8 0.6 9.7 9.4 7.9 10.5-1.9 1-8.5-2.5-10.2-1.3-1.8 1.3-14.2 8.1-24.1 3.5-9.9-4.6 5.3-9.1 5.3-9.1z"/>
				<path id="&lt;Path&gt;" class="s11" d="m577.4 1358c-16.7-1.1-29-22.8-29-22.8 13.1-23 31.3-40.8 31.3-40.8 46.2 17.6 5.3 58.7-2.3 63.6z"/>
			</g>
			<g id="&lt;Group&gt;">
				<path id="&lt;Path&gt;" class="s2" d="m367.8 613.9v3.1c0 0-0.8 9.8 11.2 11.2 12 1.5 21.9 1.3 21.6-6.3-1.1-5.8-3.1-14.9-3.2-19.7 0-1.8 0.1-3.7 0.5-5.8l-23.3-0.5-6.9 1.1z"/>
				<path id="&lt;Path&gt;" class="s36" d="m367.7 597l0.1 16.9c2.5 1.2 5.3 1.9 8.4 1.9 10.7 0 17.6-7.9 21.2-13.6 0-1.8 0.1-3.7 0.5-5.8l-23.3-0.5z"/>
				<path id="&lt;Path&gt;" class="s2" d="m399.7 592.6c-2.7 14.6-21.5 14.1-29.6 13.2-2.3-0.3-3.7-0.6-3.7-0.6-2.6-0.6-4-4.7-4.7-10-1.3-10.5 0.3-25.9 2.1-29.9 2.7-5.9 7.7-12.3 26.6-7.7 18.9 4.6 12.7 16.4 9.3 35z"/>
				<path id="&lt;Path&gt;" class="s10" d="m415 1023.2h-26.6c0.2-1.4 0.9-5.6 2.1-9.5 0.5-1.4 1-2.7 1.6-3.9 2.5-5.1 19-1.8 19-1.8 0 0 1.5 1.3 2.7 6.3 0.5 2.2 1 5.1 1.2 8.9z"/>
				<path id="&lt;Path&gt;" class="s10" d="m334.7 1014.8c-0.1 3.6-0.6 7.1-1.9 8.4h-52.6c0.7-1.9 2.6-4.7 8-5.6 6.1-1 15.7-4 21.3-9.9 2-2.1 3.4-4.5 4.1-7.4 2.5-11.1 20.4 3.3 20.4 3.3 0 0 0.8 5.8 0.7 11.2z"/>
				<path id="&lt;Path&gt;" class="s13" d="m369.6 895.7c-0.7 4.1-1.2 7.4-1.3 9.7-1.6 32.7-27.4 107.2-32 109-7.2 2.7-18.4-3.1-24.3-4.9-2.4-0.8-4.1-3.3-3.5-5.8 12.7-58.7 17.4-143.2 19.1-193.2 0.9-25.2 5.2-42.6 5.2-42.6 0 0 62.9-16.8 63.3 4.4 0.3 18.8-20.8 92.5-26.5 123.4z"/>
				<path id="&lt;Path&gt;" class="s10" d="m369.6 895.7l-42-85.2c0.9-25.2 5.2-42.6 5.2-42.6 0 0 62.9-16.8 63.3 4.4 0.3 18.8-20.8 92.5-26.5 123.4z"/>
				<path id="&lt;Path&gt;" class="s13" d="m355.7 772.4l33.2 240.9c0 0 14.6 3.5 25.9 0.7 0 0 9.8-128.1 9-159.1-0.8-31 7-82.9-1.8-88.6-8.8-5.7-66.3 6.1-66.3 6.1z"/>
				<path id="&lt;Path&gt;" class="s10" d="m358 551.5c0 0 8.3-0.7 18.1-4.9 8-3.5 18.1 0.3 21.3 2-0.1-0.5-0.3-1.2-0.8-1.9 0 0 1.5 1 1.7 2.5q0.2 0.1 0.2 0.2c0 0 1.6-0.3 2.7 0.1 0 0-0.7-0.1-1 0.4q-0.1 0.1-0.1 0.2c12.4 6 13.5 25.6 9.5 30.1-4.8 5.5-10.5 17.8-10.5 17.8 0 0-2.1-2.9-1.3-7.7 0.9-4.8-3.2-4.8-8.5-7-5.2-2.2-0.9-8.3-5.5-12-4.5-3.7-21.4-1.6-21.2-4.4-6.2-2.3-4.6-14.8-4.6-15.4z"/>
				<path id="&lt;Path&gt;" class="s37" d="m403.4 626.1l-7.7 164.2c0 0-63.8 1.1-62-13.4 1.8-14.4 23-145.8 23-145.8z"/>
				<path id="&lt;Path&gt;" class="s38" d="m432.1 781.8c0.6 2.8 0.9 4.4 0.9 4.4-8.8 14.4-41.2 14.2-41.2 14.2-6.2-27.6-9.5-71.4-9.5-71.4l24.9-109 31.3 28.9c0 0-2.4 17.7-5.3 35.6-2.3 14.2-3.6 84.4-1.1 97.3z"/>
				<path id="&lt;Compound Path&gt;" fill-rule="evenodd" class="s38" d="m357.4 652.3c1 3 1.1 5.9-0.1 8.5q-0.7 1.4-2.1 2.9c-3.3 17.8-6.7 39.3-8.8 60.9-2.4 24.3-6.7 71.1-6.7 71.4 0 1-12-3.4-14.7-16.3-1.4-7.2 1-24 3.2-42.1-2 0.4-5.1-0.8-5.1-0.8 0 0-46.8-32.7-38.4-49.2 6.9-13.6 36.1-42.9 47.4-54.3 3.2-3.3 7.1-5.8 11.3-7.5 5.4-2.1 13.2-4.6 20.9-5.5 0 0-3.1 12.8-6.9 32zm-27.7 71.9c1.1-10.4 1.7-20.6 1.1-29.1-0.3-4.6-0.3-9.6-0.1-14.6q0 0 0 0 0 0-0.2 0.2c-9.8 6.2-18.8 11.4-18.8 13.8 0 0 0 0.2 0 0.2 0.9 2.7 13.4 22.2 18 29.5z"/>
				<g id="&lt;Group&gt;">
					<path id="&lt;Path&gt;" class="s39" d="m405.2 619.8c0.1-1.5-7.3-3.7-7.3-3.7 0 0-8.5 11.8-22.5 12 0 0 3.9 7.7 8.6 9.7 0 0 20.7-8.7 21.2-18z"/>
					<path id="&lt;Path&gt;" class="s39" d="m375.4 627.8c0 0-7.5-4.4-7.5-9.2 0 0-4.8-0.6-6.9 1.8 0 0-1.7 8.1 0.6 12.9 0 0 10.7-1.7 13.8-5.5z"/>
					<path id="&lt;Path&gt;" class="s40" d="m380.4 627.1l-10.1-2.4c0 0-1.3 0.1-1.2 1.7 0 1.7 2.8 6.5 4 6.8 1.3 0.4 9.7-2.8 7.3-6.1z"/>
					<path id="&lt;Path&gt;" class="s37" d="m404 619c0.1-1.6-4.9-4.8-4.9-4.8 0 0-9.7 11.4-23.7 11.6 0 0 3.9 7.7 8.6 9.8 0 0 19.6-7.3 20-16.6z"/>
					<path id="&lt;Path&gt;" class="s37" d="m375.4 625.8c0 0-7.5-4-7.6-8.8 0 0-4.5 2-6.6 4.4 0 0-1.9 5.1 0.4 9.9 0 0 10.7-1.7 13.8-5.5z"/>
					<g id="&lt;Group&gt;">
						<path id="&lt;Path&gt;" class="s41" d="m355.7 739.1c0.3 3.8 2.1 7.4 4.9 10l4.5 4.1c1.1 1 2.9 0.9 3.8-0.3l5.5-7c1.5-1.9 2.2-4.3 2-6.7-0.5-5.3-1.5-15.5-2.3-25.3-0.6-8-1.1-15.8-1.1-20.5-0.2-15.1 2.8-63.2 2.8-63.2l-3.6 0.2c0 0-9 18.7-13.7 44.1-1.1 6.2-2 12.9-2.5 19.8 0 0-1.8 27.4-0.3 44.8z"/>
						<path id="&lt;Path&gt;" class="s40" d="m355.7 739.1c0.3 3.8 2.1 7.4 4.9 10l4.5 4.1c1.1 1 2.9 0.9 3.8-0.3l5.5-7c1.5-1.9 2.2-4.3 2-6.7-0.5-5.3-1.5-15.5-2.3-25.3-10-11.3-14-26.8-15.6-39.4-1.1 6.2-2 12.9-2.5 19.8 0 0-1.8 27.4-0.3 44.8z"/>
					</g>
				</g>
				<path id="&lt;Path&gt;" class="s2" d="m320.2 739.5c0-4.2 3.6-7.5 7.8-6.9 1.1 0.2 2.2 0.6 2.9 1.6 2.8 3.8 5.5 14.8 0.5 15.3-2.1 0.2-4.7-1.2-6.7-2.8-2.1-1.5-4.5-4-4.5-6.6z"/>
				<path id="&lt;Path&gt;" class="s2" d="m431.8 744.3c0 0-6.6 3.3-10.6 1.7-4-1.7-4.8-2.7-9.2 2.4-4.5 5.1-5.1 8.7-4.2 10.6 1 1.9 10.5-2.4 12.6-2 6.1 1.1 11.3-4.2 13.6-7.1 1.3-1.7-2.4-2.6-2.2-5.6z"/>
				<path id="&lt;Path&gt;" class="s38" d="m407.2 620c0 0 26.2 2.9 32.4 14.3 6.2 11.5 38.3 57.7 37.3 77-1.1 19.2-43.9 40.8-43.9 40.8 0 0-9.5-4-9.6-8.3-0.1-4.4 29.6-30.1 27.8-34.9-1.8-4.8-34.6-42.9-37.7-55.4-3.2-12.6-6.3-33.5-6.3-33.5z"/>
				<path id="&lt;Path&gt;" class="s10" d="m399.1 614.2c0 0-19.9 83.4-16.8 114.8 0 0 7.4-33.6 25-61.1 0 0-6.5-5.6-6.1-7.7 0 0 4.8-1.4 9.4-0.5 0 0-0.5-35.9-3.4-39.7-2.9-3.8-8.1-5.8-8.1-5.8z"/>
				<path id="&lt;Path&gt;" class="s10" d="m367.8 617c0 0-19.7 81.5-21.4 107.6 0 0 2-46.5 1.8-59.9 0 0 8.3-4.4 8.3-5.9 0-1.5-8.8-5.7-8.8-5.7 0 0 5.6-28.6 8.6-31.8 3-3.1 11.5-4.3 11.5-4.3z"/>
				<path id="&lt;Path&gt;" class="s2" d="m424.4 746.2c0 0-2.7-1.8-3.5-2.9-0.9-1-2.8-2.3-2.8-0.9 0 1.4 2.8 6.6 2.8 6.6z"/>
			</g>
			<g id="&lt;Group&gt;">
				<path id="&lt;Path&gt;" class="s40" d="m505 682.4c0 0-29.1-34.9-44.4-12.6 0 0-11.5 4.8-15.6 24.3-4.3 19.9 9 35 15.8 31.3 4.4-2.4 7.7 5.3 7.7 5.3z"/>
				<path id="&lt;Path&gt;" class="s13" d="m389.9 900.8c0.8 1.9 4.3 3.7 9.4 4.9 11.3 2.8 30.4 3.2 44.3-2 14.9-5.5 25.7-84.3 30.3-124.7 1.6-14.1 2.4-23.5 2.4-23.5 0 0-8.5-13.4-41.7-8.9-33.1 4.5-36.5 15.6-39.4 35.7-3 20.1-7.9 112.1-5.3 118.5z"/>
				<path id="&lt;Path&gt;" class="s10" d="m399.3 905.7c11.3 2.8 30.4 3.2 44.3-2 14.9-5.5 25.7-84.3 30.3-124.7-3.9-13.9-7.1-23-7.1-23 0 0-41.6-5-49.7 7.5-7.2 11.3-16 119.5-17.8 142.2z"/>
				<path id="&lt;Path&gt;" class="s2" d="m503.9 871c24.6 0.7 60-27.6 60-27.6l-4.9-7.4c-8.9 5.9-40.6 11.5-40.6 11.5 2.2-7.2 3.9-13.8 5.2-19.9 8.6-41.5-2.8-59.5-6.2-63.6-0.5-0.7-0.8-1-0.8-1q0 0-0.3 0.8c-0.4 1.2-1.2 3.6-2.3 6.9-8 24.6-30.6 99.6-10.1 100.3z"/>
				<path id="&lt;Path&gt;" class="s40" d="m463.7 666.3c0 0-3.9-15.6-26.8-10.8 0 0 11-1.3 14 2.9 0 0-8.7-4-14.1-0.7-5.5 3.4-6.4 14.6-5.6 18 0.8 3.4 6.9 13.6 10.8 13.6 4 0 8.7-3.5 8.7-3.5z"/>
				<path id="&lt;Path&gt;" class="s2" d="m429.4 910.6c11.4-25.6 16.9-32.8 17.1-40.9 0.1-6.3-3-13.2-9.1-30-1.4-4-2.4-8.1-3-12.2-4.8-32.4 13.9-67.5 25.6-69.9 3.2-0.9 8.7-12.6 8.7-31.5l1.4 0.3 24.6 4.9c0 0-0.6 7.7-0.6 15 0 6.1 0.3 11.8 1.7 12.5 1.8 0.2 2.8 0.3 2.8 0.3 0 0 20.5 28.4 22.2 54.9 1.7 26.4-16.4 37.9 0.2 90.8 16.8 53.9-97.9 19.9-91.6 5.8z"/>
				<path id="&lt;Path&gt;" class="s28" d="m494.7 731.3c0 0-0.6 7.7-0.6 15-13.7-0.4-21-12.9-24-19.9z"/>
				<path id="&lt;Path&gt;" class="s40" d="m467.6 723.8c0 0-7.2-11.4-9-21.1-1.2-7 2.4-32.7 28.2-29 0 0 7.5 0.7 14.6 5.5 5.6 3.8 13.7 12 4.7 34.4l-2.4 7.6z"/>
				<path id="&lt;Path&gt;" class="s2" d="m499.3 738.2c0 0-32.6 0.5-32.6-19.7 0-20.3-4.2-33.8 16.5-35 20.8-1.2 24.8 6.5 26.5 13.2 1.6 6.8-2 40.8-10.4 41.5z"/>
				<path id="&lt;Path&gt;" class="s40" d="m498.1 683c0 0-8.9 23.7-22.6 27.2-13.7 3.5-19.6-0.1-19.6-0.1 0 0 10.5-8.3 12.7-22.9 0 0 22.7-15.5 29.5-4.2z"/>
				<path id="&lt;Path&gt;" class="s40" d="m495.8 684.9c0 0 6.7 5.3 8.3 10.5 1.6 5.1 2.4 15.7 5.5 15.4 0 0 6.7-16.2-0.9-25.3-8-9.7-12.9-0.6-12.9-0.6z"/>
				<path id="&lt;Path&gt;" class="s23" d="m458.2 1155.9c8.2 32.5 20.5 57.5 20.5 57.5l10.7-0.8c0 0-5.2-25-4.9-58.8 0.2-23.6 3.1-51.5 12.4-78.2 32.1-91.6 26.9-158.3 26.9-158.3l-60.3 7.1-2.8 0.3c-0.2 27.7-1 65.3-1.6 94.7-0.5 26.5-1 46.3-1 46.3-11.6 25-7.4 60.2 0.1 90.2z"/>
				<path id="&lt;Path&gt;" class="s2" d="m387.2 937.7l9.7 2.9c0 0 32.2-53.4 35.1-67.3 1-4.5 3.3-13.5 6.1-23.7 5.6-21 12.9-46.7 12.9-46.7l2.4-10.4 8.2-35.5c0 0-15.7 1.6-24.9 5.4-3 1.3-5.3 2.8-6.1 4.6-6.8 14.8-13.5 52.2-18.2 78.9-2.7 14.9-4.7 26.4-5.7 28.9-2.9 6.8-11.9 44.4-19.5 62.9z"/>
				<path id="&lt;Path&gt;" class="s22" d="m423.6 1150.7c3.5 37 18.8 60.9 18.8 60.9l5.1 3.8c0 0 4.8-26.1 8.3-57.1 3.2-29.5 7.7-60.7 12.8-70.3 20.1-37.7 26.1-180.3 26.1-180.3l-61.1-3.1c-6.2 10.4-8.8 27.3-9.5 46.6-1.6 48.7 9.8 112.1 11.6 121.3q0 0 0 0c0.1 0.7-0.1 1.4-0.4 2.1-12.2 24.1-14 51.6-11.7 76.1z"/>
				<path id="&lt;Path&gt;" class="s40" d="m497.1 685.7c0 0-6.4 24.9-23.6 32.8 0 0 17.2-15.2 18.7-31.7 1.5-16.4 4.9-1.1 4.9-1.1z"/>
				<path id="&lt;Path&gt;" class="s42" d="m545.7 1222.3q0.1 0.1 0.1 0.1h3.3q-0.4-0.1-0.8-0.1z"/>
				<path id="&lt;Path&gt;" class="s17" d="m421.8 929c-0.1 2.1 0 3.7 0.4 4.9 1.3 4.1 5.7 6 16.5 4.9 6.6-0.7 9.6-11.8 10.9-21.2 4 13.5 9.5 21 16.7 22.6 10.5 2.4 63.3 8.8 66.8-16.3 3.8-27.6-7.6-76.6-8.3-102.9 1.6-9.4 2.1-17.5 2-24.5-0.5-18.8-6-29.3-10.2-33.5-1.2-1-2.4-1.5-7.3-2.4-2.4-0.4-5.8-0.9-10.7-1.5 0 0-1.9-0.2-1.9-0.1 0.9 1.6 7.7 15.2 8.2 19.9 0.8 8.1-22.8 15.2-36.1 0.8-6.4-6.9-14.1-21.8-14.1-21.8 0 0-15 1.7-22.4 7q0 0 0.1 0.1-1.3 0.9-1.9 2c-7.9 15-15.7 52.6-21.2 79.5 13.4 7.4 25 5.2 28.6 4.2-4.7 31-15.4 64.2-16.1 78.3z"/>
				<path id="&lt;Path&gt;" class="s2" d="m559 836c0.4-1 5-14.7 8.6-16.6 3.5-1.9 10-3.9 11.5-3.2 1.5 0.8 4.3 11.2 0 16.6-4.3 5.4-15.2 10.6-15.2 10.6z"/>
				<path id="&lt;Path&gt;" class="s13" d="m498.6 759.1q0 0 0.1 0.1c1.4 2.3 24 38.3 26.1 61.8 1.6-9.4 2.1-17.5 2-24.5-2.9-8.8-10-28.5-17.5-35.9-0.9-0.9-10.7-1.5-10.7-1.5z"/>
				<g id="&lt;Group&gt;">
					<path id="&lt;Path&gt;" class="s8" d="m552.9 836l14.9 4.9c0.5 0.2 1-0.1 1.2-0.6l9.4-28.4c0.2-0.5-0.1-1-0.6-1.2l-14.9-5c-0.5-0.1-1 0.1-1.2 0.6l-9.4 28.5c-0.2 0.5 0.1 1 0.6 1.2z"/>
					<path id="&lt;Path&gt;" class="s9" d="m556.7 837.2l13.6 4.5c0.8 0.3 1.8-0.1 2.1-1l9-27c0.3-0.9-0.2-1.9-1.1-2.2l-13.5-4.5c-0.9-0.3-1.8 0.2-2.1 1.1l-9 27c-0.3 0.9 0.2 1.9 1 2.1z"/>
				</g>
				<path id="&lt;Path&gt;" class="s13" d="m438.4 755.2c0 0 29.7 20.2 32 63.3 2.2 43-36.5 51.7-36.5 51.7l2.5-13.6c0 0 31.4-11.3 23.2-45.6-8.2-34.2-36.2-53.5-36.2-53.5z"/>
				<path id="&lt;Path&gt;" class="s2" d="m580 817.6c0 0-2.3-3-7.9-3.4-2.4-0.2-0.2 7 1.4 13.9 1 4.2 2.5 4.7 2.5 4.7z"/>
				<path id="&lt;Path&gt;" class="s2" d="m387.2 937.7c0 0-10.4 9-10.3 13.8 0.2 4.8 2.5 15.6 5.1 14.7 2.6-0.8 2.5-10.8 5.2-13 2.6-2.2-0.2 4.8 1 4.6 1.2-0.1 6.9-6.5 6.9-8.7 0-2.3 1.8-8.5 1.8-8.5z"/>
			</g>
			<g id="&lt;Group&gt;">
				<path id="&lt;Path&gt;" class="s10" d="m350.3 1663.8c0 0 0-10.2 1.5-13.6 1.4-3.4 6.7-17.1 6.7-17.1h20.8c0 0 3.9 12.5 4.1 16.6 0.3 4.2 0 14.1 0 14.1z"/>
				<path id="&lt;Path&gt;" class="s10" d="m482.3 1663.8c0 0 0-10.2-1.4-13.6-1.5-3.4-6.8-17.1-6.8-17.1h-20.8c0 0-3.9 12.5-4.1 16.6-0.2 4.2 0 14.1 0 14.1z"/>
				<path id="&lt;Path&gt;" class="s2" d="m399 1092.5c0 0-0.7 22.7-3.6 32.8l-23 16 86.5 13-20.6-28.5c0 0-6.3-30.4-3-41.6 3.3-11.3-36.3 8.3-36.3 8.3z"/>
				<path id="&lt;Path&gt;" class="s5" d="m398.9 1095.6c0 0 6.8 16.5 19.7 16.1 12.9-0.3 15.8-14.9 15.8-14.9z"/>
				<path id="&lt;Path&gt;" class="s43" d="m391.2 1082.3c0 0-4.1-20.7-7-27-2.9-6.3-5.4-34.3 26.8-35.8 0 0 12.3 1.5 19.1-2.7 0 0 0 4.2-1.7 5.6 0 0 11.1-2.7 19.8 7 8.7 9.7-5.8 43.5-5 51.5z"/>
				<path id="&lt;Path&gt;" class="s2" d="m417.1 1105.4c-9.3-0.2-26.5-12.6-26.5-28v-24c0-5.6 4-10.2 8.7-10.2h35.6c4.8 0 8.7 4.6 8.7 10.2v22.6c0 16.2-15.8 29.6-26.5 29.4z"/>
				<path id="&lt;Path&gt;" class="s43" d="m390.6 1066.2c0 0 0.1-14.4 11.5-16.6 11.4-2.2 37 7 40.6-3.5 3.7-10.5-49.4-10.3-52.1-3.6-2.6 6.7 0 23.7 0 23.7z"/>
				<path id="&lt;Path&gt;" class="s22" d="m352.9 1311.3c0 0 3.7 111.1-1.8 174.5-5.4 63.3 0.1 151.5 0.1 151.5 0 0 17.4 9.6 36.2 0 0 0 20.7-122.4 20.6-151.5-0.2-31.1 22.5-169.7 22.5-169.7z"/>
				<path id="&lt;Path&gt;" class="s22" d="m481.6 1637.3c0 0-17.4 9.6-36.3 0 0 0-20.7-122.4-20.5-151.5 0-13.2-4-45.4-8.6-78.4-6.4-45-13.9-91.3-13.9-91.3l80.5-5c0 0-6.6 111.3-1.2 174.7 5.5 63.3 0 151.5 0 151.5z"/>
				<path id="&lt;Path&gt;" class="s11" d="m481.9 1329.8c0 0-34.4 6.6-65.7 6.6-13.7 0-28.5-1.5-40.3-3.1-13.1-1.7-22.5-3.5-22.5-3.5 0 0-6.9 0.6-2.8-33.7 3.1-26.2 2.1-49.7 1.4-74-0.1-2.7 0-5.9 0.2-9.5 1.3-28.2 9.9-79.2 16.4-81.9 0 0 9.7-3.6 26.8-5.4 0 0.4 9.9 14.9 21.7 16.5 7.4-2.9 13.1-5.3 21.2-16 10.1 1.2 21.2 3.2 33 6.4 0 0 1.3 5.4 5.9 99 1.9 37.1 14.5 98.7 4.7 98.6z"/>
				<path id="&lt;Path&gt;" class="s23" d="m424.8 1485.8c0-13.2-4-45.4-8.6-78.4 4.8-19.6 16.6-38.6 16.6-38.6 14.8 41.7-8 117-8 117z"/>
				<path id="&lt;Path&gt;" class="s13" d="m320.3 1242.1c-0.8 0.7 2 7.8 6.2 17 8.7 19 23.1 46.9 23.1 46.9-2.1 7.9-4.4 12.8-4.4 12.8-24.2-19-39.8-35.2-49.8-47.6-14-17.4-16.8-27.4-16.8-27.4 53.8-109.7 91.8-113.7 91.8-113.7l-4.5 72.5c0 0-43.1 37.4-45.6 39.5z"/>
				<path id="&lt;Path&gt;" class="s13" d="m491.5 1358.4c-8 16.1-38.3 15.5-38.3 15.5-5.6-42.7-6.8-247-6.8-247 10.2 1.2 23.8 4.9 23.8 4.9 9.9 19 13.4 54.6 14.2 79.7 0.5 14.1 0.1 24.8-0.4 27.5-0.7 4 0.2 23.1 1.7 44.9 2.3 34 5.8 74.5 5.8 74.5z"/>
				<path id="&lt;Path&gt;" class="s13" d="m387.4 1126.3c0 0-2 204.9-7.6 247.6 0 0-30.2 0.6-38.3-15.5 0 0 12.5-126.1 10.5-136.3-1.4-7.2 2.2-65.9 15.3-91.2 0 0 11.4-3.5 20.1-4.6z"/>
				<path id="&lt;Path&gt;" class="s2" d="m346.7 1307.4c0 0 13-12.1 18.4-5.3 5.3 6.8 6.3 17.4 2.1 16.7-4.1-0.7-12.5-4.6-13.7-2.7-1.2 2-6.7 5.7-8.3 2.7-1.6-2.9 1.5-11.4 1.5-11.4z"/>
				<path id="&lt;Path&gt;" class="s2" d="m349.6 1306c-2.1 7.9-4.4 12.8-4.4 12.8-24.2-19-39.8-35.2-49.8-47.6 7.6-0.5 18.5-3.2 31.1-12.1 8.7 19 23.1 46.9 23.1 46.9z"/>
				<path id="&lt;Path&gt;" class="s13" d="m557.6 1243.8c0 0-2.8 10-16.8 27.4-10 12.4-25.6 28.6-49.8 47.6 0 0-2.3-4.9-4.4-12.8 0 0 14.4-27.9 23.1-46.9 4.2-9.2 7-16.3 6.2-17-1.9-1.6-28.2-24.5-40-34.7-3.4-2.9-5.6-4.8-5.6-4.8l-2.7-71.4c0 0 36.2 2.9 90 112.6z"/>
				<path id="&lt;Path&gt;" class="s2" d="m489.5 1307.4c0 0-13-12.1-18.4-5.3-5.3 6.8-6.2 17.4-2.1 16.7 4.1-0.7 12.5-4.6 13.7-2.7 1.2 2 6.7 5.7 8.3 2.7 1.7-2.9-1.5-11.4-1.5-11.4z"/>
				<path id="&lt;Path&gt;" class="s2" d="m486.6 1306c2.1 7.9 4.4 12.8 4.4 12.8 24.2-19 39.8-35.2 49.8-47.6-7.5-0.5-18.5-3.2-31.1-12.1-8.7 19-23.1 46.9-23.1 46.9z"/>
				<g id="&lt;Group&gt;">
					<g id="&lt;Group&gt;">
						<path id="&lt;Compound Path&gt;" fill-rule="evenodd" class="s22" d="m405.1 1076.3c-3.4 0-10.3-0.7-11.5-6.6-0.3-1.8 0-3.4 1-4.7 1.1-1.3 2.9-2.1 5-2.1h10.5q3 0 4.1 1.7c1.3 1.9 0.3 4.8-0.2 5.9-1.6 3.9-3.8 5.7-7 5.7-0.2 0.1-0.9 0.1-1.9 0.1zm-5.5-12.7c-1.9 0-3.5 0.7-4.5 1.9-0.8 1-1.1 2.4-0.8 4 0.6 3.1 2.9 5 6.8 5.8 3 0.6 5.8 0.3 5.8 0.3h0.1c2.8 0 4.9-1.7 6.4-5.3 0.3-0.9 1.4-3.6 0.2-5.3q-0.9-1.4-3.5-1.4z"/>
					</g>
					<g id="&lt;Group&gt;">
						<path id="&lt;Compound Path&gt;" fill-rule="evenodd" class="s22" d="m429.2 1076.3c-1 0-1.8 0-1.9-0.1-3.2 0-5.4-1.8-7.1-5.7-0.4-1.1-1.4-4-0.1-5.9q1.1-1.7 4.1-1.7h10.5c2 0 3.9 0.8 5 2.1 1 1.3 1.3 2.9 0.9 4.7-1.2 5.9-8 6.6-11.4 6.6zm-5-12.7q-2.6 0-3.6 1.4c-1.1 1.7-0.1 4.4 0.3 5.3 1.5 3.6 3.5 5.3 6.4 5.3h0.1c0 0 2.8 0.3 5.8-0.3 3.9-0.8 6.2-2.7 6.8-5.8 0.3-1.6 0-3-0.9-4-0.9-1.2-2.6-1.9-4.4-1.9z"/>
					</g>
					<g id="&lt;Group&gt;">
						<path id="&lt;Path&gt;" class="s22" d="m413.4 1067.8c-0.2 0-0.3-0.1-0.4-0.3-0.1-0.2 0-0.4 0.2-0.5 0.2-0.1 4.3-1.9 7.9 0 0.2 0.1 0.3 0.3 0.2 0.5-0.1 0.3-0.3 0.3-0.5 0.2-3.3-1.7-7.2 0-7.2 0q-0.1 0.1-0.2 0.1z"/>
					</g>
				</g>
			</g>
			<g id="&lt;Group&gt;">
				<g id="&lt;Group&gt;">
					<path id="&lt;Path&gt;" class="s44" d="m1541.9 1052.1l-8.1 1.5c0 0-22.2-34.3-22.9-44.7-0.6-10-20.6-53.6 2.8-80.8q1.6-1.9 3.5-3.6 0-0.1 0.1-0.2 0 0 0.1 0.2c0.5 0.8 2.4 4.2 4.6 11.6 3.4 11.6 7.6 33.2 8.6 70.5 0 0 5.4 31.9 11.3 45.5z"/>
					<path id="&lt;Path&gt;" class="s44" d="m1541.9 1052.1c0 0 8.7 9.8 9 13.8 0.2 4-3.2 9-7.1 9.8-3.8 0.9-1.4-5.3-2-7.7-0.6-2.5-3.1-6.2-3-5.1 0.2 1.1 1.7 5.5 1.3 6.2-0.5 0.7-1.8 0.8-2.2-1.5-0.5-2.4-4.4-5.1-3.6-7.6 0.7-2.5 0.1-4.5-1-7.8-1-3.4-2.8-7.5-2.8-7.5l6.3-1.3z"/>
				</g>
				<path id="&lt;Path&gt;" class="s4" d="m1483.2 874.8c0 0-0.2 4.2 2.3 5 2.5 0.8-2.6 9.7-2.2 15.8 0.4 6 3.1 8.4 3.1 8.4 0 0-1.3-3.3-0.6-5.3 0 0-0.1 4.2 3 6.4 3.1 2.1 2.3 4 2.3 4 0 0 7-2.1 7.2-7.4 0 0 0.3 2.4 0.1 3.4 0 0 6.1-4.6 6.4-9.8 0.3-5.3-4.8-9.8-7.1-9.8-2.3-0.1-7.5-4.7-7.4-6.4 0.2-1.7-7.1-4.3-7.1-4.3z"/>
				<path id="&lt;Path&gt;" class="s45" d="m1502.7 845.3c-4.1-6.3-20.4-2.8-36.4 7.7-16 10.6-25.6 24.1-21.5 30.4 4.1 6.2 20.4 2.7 36.3-7.8 16-10.5 25.7-24.1 21.6-30.3z"/>
				<path id="&lt;Path&gt;" class="s11" d="m1537.8 1304.8l-8.6 3.2c0 0-37.4-52-42-97.7-0.9-8.1-0.6-16 1.2-23.3 0 0-0.4-2.1-1-5.8q-0.5-2.6-1.1-6.2c-1.2-6.9-2.9-16.5-4.8-27.4-4.4-25-10.1-56.9-14.6-80.4l2.4-0.8 25.1-8.1 5.2-16.5 18.7-4.9c0 0 4.2 8.2 7.9 46.8 0.7 5.1 1.3 10.7 1.8 16.7 1.5 18.5 1.6 41.5-1.8 67.7q-1.2 10.1-3.3 20.8c-0.9 5.2-1.1 12.3-0.7 20.5 1.9 37.3 15.6 95.4 15.6 95.4z"/>
				<path id="&lt;Path&gt;" class="s12" d="m1528 1100.4l-40.6 80.8q-0.5-2.6-1.1-6.2c-1.2-6.9-2.9-16.5-4.8-27.4-4.4-25-10.1-56.9-14.6-80.4l2.4-0.8 25.1-8.1 5.2-16.5 22.3-6.6c0 0 0.6 9.9 4.3 48.5 0.7 5.1 1.3 10.7 1.8 16.7z"/>
				<path id="&lt;Path&gt;" class="s4" d="m1493.7 846l-28.8 43.6c0 0-3.3-6.5-6.9-4.2-5.7 3.6-17.9-8.7-15.4-26.1q0.3-1.7 0.6-3.2c5.7-8.3 12.1-17.5 16.7-23.9 13.2-8 33.8 13.8 33.8 13.8z"/>
				<path id="&lt;Path&gt;" class="s2" d="m1506.3 934c-4 3.7-9.3 7-16 9.6-25.4 9.6-38.4-11.2-44.3-25.9 3.3-2.5 6.6-3.4 8.5-3.9 1.9-0.5 3.9-0.9 5.5-1.2 2.6-2.7 5.8-12.5 4.8-26.9l1.3 0.1 21.4 2.9c0 0-0.1 6.7 0.3 12.9 0.3 4.9 0.9 9.6 2 10.6 1.6 0.1 2.6 0.2 2.6 0.2q0 0 0 0c0.4 0.5 7.7 9.5 13.9 21.6z"/>
				<path id="&lt;Path&gt;" class="s17" d="m1518.1 948.9q0 0.9-0.1 1.8c-2.1 16.1-5.1 68.3-5.1 68.3 5.1 10-70.1 33-73.3 23.5-4.9-7.4 0-21.6 4.2-32.5 1-2.7 1.3-5.5 2.2-7.6q0.8-1.9 1.4-4c0.8-3.5 0.9-7.2 0.2-10.7-1.9-9.4-4.6-18.2-6.9-25.3-1.1-3.4-2.1-6.4-2.9-9 1.1-1.5 2.2-2.9 3.2-4.2 1.5-2.1 2.8-4 3.6-5.7 1-1.9 1.4-3.7 0.9-5.5q-0.5-1.9-1.3-3.9-0.4-0.9-0.9-1.8c-3-6.2-7.7-11.3-7.7-11.3 6.1-5 18.9-7.2 18.9-7.2 0 0 0.2 0.7 0.6 1.8 1.4 4.5 5.1 16.1 7.2 17.8 2.7 2.1 39.5 3.6 40.1-0.7 0.5-4.1-9.6-19.7-10-20.3q0 0 0 0 0.6 0.1 1.2 0.1c1.9 0.1 3.6 0.5 5.1 0.5 10.1 0.5 11.8 3.2 11.8 3.2-5.2 6.4 8.4 17.4 7.6 32.7z"/>
				<path id="&lt;Path&gt;" class="s5" d="m1487.5 888.7c0 0-0.1 6.7 0.3 12.9-11.9 0.5-18.8-9.9-21.7-15.8z"/>
				<path id="&lt;Path&gt;" class="s2" d="m1491.8 894.4c0 0-28 2.2-29.1-15.2-1.1-17.5-5.5-28.9 12.3-31.1 17.8-2.2 21.7 4.3 23.5 10 1.8 5.7 0.6 35.2-6.7 36.3z"/>
				<path id="&lt;Path&gt;" class="s4" d="m1497.1 848.4c-4.7-4.9-7.9-3.6-9.6-1.9-15.9-7.4-24.9 5.7-24.9 5.7-1.1 12.6-9.7 20.3-9.7 20.3 0 0 5.3 2.9 16.9-0.9 3.5-1.2 6.6-3.9 9.1-7.2-4.2 8.3-10.4 14.5-10.4 14.5 13.7-7.4 18.1-27.3 18.5-29.4 1.8 1.4 5.4 4.5 6.6 7.7 1.7 4.4 2.9 13.5 5.6 13 0 0 4.9-14.3-2.1-21.8z"/>
				<path id="&lt;Path&gt;" class="s10" d="m1564.8 1319.2h-43.4c0 0-1.6-6.9 1.2-11.6 2.5-4.2 1.6-6.6-0.3-10 2 0.8 4.5 1.5 7.3 1.4 2.2-0.2 4.5-1.1 6.5-2.3 1.8 2.1 9.8 11.2 12.3 13 2.9 2 15.5 1.3 16.4 9.5z"/>
				<path id="&lt;Path&gt;" class="s46" d="m1442 867.9c0 0-13-25.9 5.2-36.1 18.2-10.2 31.5-6.2 41.5 6.3z"/>
				<path id="&lt;Compound Path&gt;" class="s47" d="m1515.3 835.2c-3.8-6-16.9-5-32.7 1.5-6.1 2.5-12.7 5.9-19.3 10-8.2 5.1-15.4 10.7-21 16.2-10.5 10.2-15.6 20-12.2 25.5 3.8 6 17 5 32.9-1.6-1.3-1.4-3.1-2.6-5-1.4-2 1.3-4.7 0.6-7.3-1.5-2-0.3-3.4-1.1-4.2-2.3-0.6-1-0.8-2.1-0.6-3.4 0.8-6.1 9.4-15.5 21.7-23.2 9.5-5.9 18.9-9.3 25.3-9.8 3.8-0.2 6.6 0.6 7.8 2.5 1.1 1.7 0.8 4.1-0.5 6.8 0.7 2.8 0.7 5.9 0.5 8.5 12-11 18.2-21.9 14.6-27.8z"/>
				<path id="&lt;Path&gt;" class="s18" d="m1473 1004c-10.8 3.5-21.4 5-29.7 5.6 1-2.7 1.8-5.1 2.7-7.2q0.8-1.9 1.4-4c0.8-3.5 0.9-7.2 0.2-10.7-1.9-9.4-7-25.5-9.3-32.6 6-13.5 12.3-6.1 12.3-6.1 0 0 18.4 8.2 26.2 23.4 7.8 15.1 5.5 28.6-3.8 31.6z"/>
				<path id="&lt;Path&gt;" class="s11" d="m1449.6 914.8c0 0 17.4 11.2 21.9 34.7l5.3-1.6c0 0-2.1-16.8-22.3-34.1z"/>
				<path id="&lt;Path&gt;" class="s11" d="m1511.3 950.1l-5.6 0.4c1.1-20.4-9.1-34.3-12.1-38q2.8 0.2 5.1 0.5c14.5 21 12.6 37.1 12.6 37.1z"/>
				<path id="&lt;Path&gt;" class="s11" d="m1518.1 1038.6l4-1.7-3.9-58.5c0 0-3.7-26.6-3.8-31.2-0.1-4.7-3.8-6.9-3.8-6.9 0 0-27.6 1.4-35.3 1.9-7.8 0.4-7 4.8-7 4.8 0 0 3.4 14.1 3.7 15.6 5.3 22.2-24.6 35.8-24.6 35.8 0 0-4.9 12.5-8.6 24.5-6.5 20.6-0.7 50.2-0.7 50.2 0.9 15.7 2.7 82.4 4.6 102.2 0.7 7.1 1.3 12.2 1.5 14.2q0 0.1 0 0.1c0.1 0.6-0.1 1.2-0.4 1.7-2.8 4.7-5.1 9.5-6.9 14.5-18.4 48.8 2.8 108.9 2.8 108.9l5.5-2.2c0 0 12-66.9 21.8-96.4 1.6-5 3.2-9 4.7-11.3 4.2-6.9 8.2-18.1 11.8-31.4 6.7-25.2 12.2-58 15.8-83.3 0.5 0 5.7-35.5 18.8-51.2q0.1-0.2 0-0.3z"/>
				<g id="&lt;Group&gt;">
					<g id="&lt;Group&gt;">
						<path id="&lt;Path&gt;" class="s18" d="m1471.3 947.5c-0.4-1.2 0.3-2.5 1.5-2.9 1.2-0.4 2.5 0.3 2.9 1.5 0.4 1.2-0.3 2.5-1.5 2.9-1.2 0.4-2.5-0.3-2.9-1.5z"/>
						<path id="&lt;Path&gt;" class="s17" d="m1471.7 947.4c-0.4-1.3 0.3-2.6 1.5-3 1.2-0.3 2.5 0.3 2.9 1.6 0.4 1.2-0.3 2.5-1.5 2.9-1.2 0.4-2.5-0.3-2.9-1.5z"/>
					</g>
					<path id="&lt;Path&gt;" class="s13" d="m1472.4 946.7c0.1-0.2 0.2-0.4 0.4-0.4 0.2 0 0.3 0.2 0.3 0.4 0 0.1-0.1 0.3-0.3 0.3-0.2 0-0.4-0.2-0.4-0.3z"/>
					<path id="&lt;Path&gt;" class="s13" d="m1474.7 946.7c0-0.2 0.1-0.4 0.3-0.4 0.2 0 0.3 0.2 0.3 0.4 0 0.1-0.1 0.3-0.3 0.3-0.2 0-0.3-0.2-0.3-0.3z"/>
				</g>
				<g id="&lt;Group&gt;">
					<g id="&lt;Group&gt;">
						<path id="&lt;Path&gt;" class="s18" d="m1505.4 944.5c-0.4-1.2 0.3-2.5 1.5-2.9 1.3-0.4 2.6 0.3 3 1.5 0.3 1.3-0.3 2.6-1.6 2.9-1.2 0.4-2.5-0.2-2.9-1.5z"/>
						<path id="&lt;Path&gt;" class="s17" d="m1505.8 944.4c-0.4-1.2 0.3-2.5 1.5-2.9 1.3-0.4 2.6 0.3 3 1.5 0.3 1.2-0.3 2.5-1.6 2.9-1.2 0.4-2.5-0.3-2.9-1.5z"/>
					</g>
					<path id="&lt;Path&gt;" class="s13" d="m1506.6 943.7c0-0.2 0.2-0.3 0.3-0.3 0.2 0 0.4 0.1 0.4 0.3 0 0.2-0.2 0.3-0.4 0.3-0.1 0-0.3-0.1-0.3-0.3z"/>
					<path id="&lt;Path&gt;" class="s13" d="m1508.8 943.7c0-0.2 0.2-0.3 0.3-0.3 0.2 0 0.4 0.1 0.4 0.3 0 0.2-0.2 0.3-0.4 0.3-0.1 0-0.3-0.1-0.3-0.3z"/>
				</g>
				<path id="&lt;Path&gt;" class="s4" d="m1445.9 878.2c0 0-0.2 4.1 2.3 4.9 2.5 0.8-2.6 9.8-2.2 15.8 0.4 6 3.1 8.5 3.1 8.5 0 0-1.3-3.4-0.6-5.4 0 0-0.1 4.3 3 6.4 3.1 2.2 2.3 4 2.3 4 0 0 7.1-2.1 7.3-7.4 0 0 0.3 2.4 0 3.4 0 0 6.1-4.6 6.4-9.8 0.3-5.3-4.8-9.7-7.1-9.8-2.3-0.1-7.5-4.6-7.4-6.4 0.2-1.7-7.1-4.2-7.1-4.2z"/>
				<path id="&lt;Path&gt;" class="s2" d="m1445.9 1016.9c0 0 8.4 5.3 9.6 5.2 2.9-0.1 8.6-6.3 13.3-3.4 4.7 2.9 9.3 7.7 7.7 9.6-1.6 2-7.2-0.3-9.8 0.1-2.7 0.4-9.3 3.6-13.9 2.1-4.4-1.5-14-7.6-14-7.6z"/>
				<path id="&lt;Path&gt;" class="s2" d="m1435.6 921c0 0-31.1 36.8-41.4 57.6 0 0 12.4 27 52.6 48.9 0 0 1.7-0.4 4.5-2.3 4.2-3.1-0.5-5.3-1.4-5.9-10.2-6.6-28-35.1-28.6-37.5-0.5-2.5 22.4-24.6 29.3-32.8 7-8.2-4.2-32.2-15-28z"/>
				<path id="&lt;Path&gt;" class="s48" d="m1483.2 884.6c0 0 4.2 2.5 7.1 2.3 3-0.3 4.6-3.9 4.6-3.9 0 0-5.7-0.8-11.7 1.6z"/>
				<path id="&lt;Path&gt;" class="s17" d="m1435.6 921l-14 13.7c0 0 3.2 20.2 24.4 22.8 0 0 17.4-13.9 7-28.4-10.4-14.5-17.4-8.1-17.4-8.1z"/>
				<path id="&lt;Path&gt;" class="s17" d="m1510.5 916.2c0 0 10.8 5 14.3 22.4 0 0-0.2 5.5-8.5 8.4 0 0-10.9-29.4-9.4-30.8 1.6-1.4 3.6 0 3.6 0z"/>
				<path id="&lt;Path&gt;" class="s2" d="m1455.5 1022.1c0 0 0.5-2 2.3-2.8 1.8-0.8 3.5-2.5 3.6-2 0.2 0.5 0.3 1.3-0.7 2.4-0.9 1-2.5 2.7-5.2 2.4z"/>
				<path id="&lt;Path&gt;" class="s10" d="m1471.6 1319.2h-43.4c0 0-1.1-6.6 1.2-11.6 2.2-4.8 5.6-7 4.8-12.8 2.7 2.8 7.2 6 13.5 5.1 0.8 1.3 5 7.9 7.5 9.8 2.9 2 15.5 1.3 16.4 9.5z"/>
			</g>
			<g id="&lt;Group&gt;">
				<g id="man 2 ">
					<path id="&lt;Path&gt;" class="s2" d="m1793.2 959.7c-2.1 5.6-5.7 12-9.5 13.6-4.2 1.9-6 4.4-6 4.4l-3.5-2-4.1-2.4c0 0 0.1-0.4 0.3-1.2 0.2-0.7 0.5-1.7 0.9-2.9 0 0 1.3-1.6 0.5-3.7-0.7-2-0.6-5.1 0.7-7.1 1.4-1.9 2.6-6.6 3.4-6.5 2 0.4-0.9 6.9-0.1 8.1 0.8 1.1 1.7 0.7 1.9 0.6q0 0 0 0c5.4-2.4 11.9-15.2 14.8-13.5 1.1 0.7 1.5 10.2 0.7 12.6z"/>
					<g id="&lt;Group&gt;">
						<path id="&lt;Path&gt;" class="s13" d="m1774.5 967.5l6.7 4.7c0.5 0.3 1.2 0.2 1.5-0.3l17.3-24.6c0.4-0.5 0.3-1.2-0.2-1.5l-6.8-4.7c-0.5-0.4-1.1-0.3-1.5 0.2l-17.3 24.7c-0.3 0.4-0.2 1.1 0.3 1.5z"/>
						<path id="&lt;Path&gt;" class="s10" d="m1780.7 971.8l3.9 2.8c0.4 0.2 0.9 0.2 1.2-0.2l17.6-25.1c0.2-0.3 0.1-0.8-0.2-1.1l-4-2.8c-0.3-0.2-0.9-0.2-1.1 0.2l-17.6 25.1c-0.3 0.3-0.2 0.8 0.2 1.1z"/>
					</g>
					<path id="&lt;Path&gt;" class="s10" d="m1677.4 932.1c0 0 34.5 60 46.9 71.1l45.8-34.2c0 0 6.7 2.1 9.6 8.7 0 0-27.8 56.7-55.2 59.1-27.4 2.4-65.8-67.9-65.8-67.9z"/>
					<g id="&lt;Group&gt;">
						<path id="&lt;Path&gt;" class="s10" d="m1599.5 1340.4h-19.8c-2.5-1.4-4.8-4.5-5.5-9.1-0.9-6.4-8.1-9.9-9.7-15.2-1.5-5.2 6.4-12.6 6.4-12.6l1.4-1.7 1.3-1.8 13.2 3.1c0 0 0.4 3.2 0.6 7.2 0.1 2.9 0.2 6.2 0 9.1-0.4 7 2 14.5 8.2 15.9 4.6 1 4.4 3.7 3.9 5.1z"/>
						<path id="&lt;Path&gt;" class="s10" d="m1715 1340.4h-45.5c-2.2-2.7-1.4-12.5-1.1-15.7 0.1-0.7 0.1-1.1 0.1-1.1 0 0 15.6-12.4 17.7-2.9q0.1 0.5 0.2 0.9c2.7 8.9 14.8 12.9 21.7 14.1 4.6 0.7 6.2 3 6.9 4.7z"/>
						<path id="&lt;Path&gt;" class="s10" d="m1706.3 1086.5c0 0-2.4 29.4-5.1 64.8-3.8 48.1-8.3 107.1-8.8 118.2-0.8 19.5-3.9 50.5-3.9 50.5 0 0-7.3 7.4-22.1 4.3 0 0-13.1-44.3-16.9-91.2q-0.1-1.2-0.2-2.4c-3.5-47.7-8.9-148.3-8.9-148.3z"/>
						<path id="&lt;Path&gt;" class="s49" d="m1706.3 1086.5c0 0-2.4 29.4-5.1 64.8l-51.7 81.8q-0.1-1.2-0.2-2.4c-3.5-47.7-8.9-148.3-8.9-148.3z"/>
						<path id="&lt;Path&gt;" class="s10" d="m1695.5 1090c0 0-42.5 106.6-70.4 156.6-28 50.1-36.7 64.1-36.7 64.1 0 0-16-6.4-17.5-10.8 0 0 10.7-96.6 29.4-120.2 10.6-13.3 23-53.3 23.6-67.3 0.6-13.9 3.8-41.6 3.8-41.6z"/>
					</g>
					<path id="&lt;Path&gt;" class="s2" d="m1684.9 934.7c-16.6 5.2-45.3-8.9-45.3-8.9 0 0 15.3-11.5 14.5-35.4l12.9 10.3 8.7 7.1c0 0-0.1 4.1-1 11.4q-0.4 2.8-1 6.3c7.2 4 11.2 9.2 11.2 9.2z"/>
					<path id="&lt;Path&gt;" class="s50" d="m1675.7 907.8c0 0-0.1 4.1-1 11.4-9.7-1.7-20.6-17.3-20.6-17.3 4.9-1.4 9.2-1.7 12.9-1.2z"/>
					<path id="&lt;Path&gt;" class="s2" d="m1680.8 907.4c0 0-27.5 4.5-30.1-12.6-2.5-17.1-7.8-28.1 9.6-31.7 17.4-3.6 21.8 2.4 24.1 7.9 2.2 5.5 3.4 34.7-3.6 36.4z"/>
					<path id="&lt;Path&gt;" class="s13" d="m1708.1 1089c-0.5 0.4-1.1 0.6-1.7 0.6-6.3 0-24.4 3.4-39.8 1.8-13-1.2-24.5-5.1-36.8-10.6-1.7-0.7-5.4-2.7-5.3-4.6 0-2 0.2-4.9 0.5-8.5 0.8-12.8 2.4-34.7 0.9-59.9q-0.4-7.1-0.5-14c-0.1-34.2 6.7-64.3 20.3-74.5 1.2-0.8 8.4 2.7 14.9 5.9 6.1 3 12.2 3.3 17.9 2.2l5.8 5c6.9 6.5 14.6 15.3 17.9 28.7 2.9 11.4 4.5 32 5.4 53.3 0.4 9.6 0.8 19.3 0.9 28.6v0.3c0 0.9 0 1.9 0 2.8 0.4 23.7 0 42.5-0.4 42.9z"/>
					<path id="&lt;Path&gt;" class="s10" d="m1625 1067.7c0.8-12.8 2.4-34.7 0.9-59.9q-0.4-7.1-0.5-14c5.7-13.8 10.4-23.8 10.4-23.8h14.3c0 0 10.5 71.8-25.1 97.7z"/>
					<g id="&lt;Group&gt;">
						<path id="&lt;Path&gt;" class="s10" d="m1561.8 1130.2l42.2 6c5.5 0.8 10.6-3.1 11.4-8.6l2.6-18.3c0.8-5.5-3.1-10.6-8.6-11.4l-42.2-6c-5.5-0.8-10.6 3.1-11.4 8.6l-2.6 18.3c-0.8 5.5 3.1 10.6 8.6 11.4z"/>
						<path id="&lt;Compound Path&gt;" fill-rule="evenodd" class="s13" d="m1612.4 1108.5l-2.6 18.5c-0.5 3.6-2.9 6.5-6 7.9q-1.5 0.7-3.3 0.8 0 0 0 0-1 0.1-2.2-0.1l-42.1-6c-5.5-0.8-9.4-5.9-8.6-11.4l2.6-18.5c0.8-5.6 6-9.4 11.5-8.6l14.5 2 0.6-3.9c0.2-1.8 1.9-3.1 3.7-2.9l1.6 0.3 8.9 1.2 2.2 0.3c0.8 0.2 1.6 0.6 2.2 1.3 0.5 0.8 0.7 1.6 0.6 2.5l-0.6 4 8.4 1.2q0.5 0 1 0.2 0 0 0 0c3.3 0.8 5.8 3.1 7 6.1 0.7 1.6 0.9 3.3 0.6 5.1zm-34.1-15.1l15.1 2.2 0.5-4c0.1-0.7-0.4-1.3-1-1.4l-3.8-0.5-7-1-1.9-0.3q-0.1 0-0.3 0c-0.6 0.1-1 0.5-1.1 1.1z"/>
					</g>
					<path id="&lt;Path&gt;" class="s2" d="m1598.1 1070.1c0 0-3 3.8-3.1 5.3-0.3 10.5 4.9 12.2-8.2 17.5 0 0-5.7 1.8-6-2.3-0.2-4.2 3.8-4.1 2.8-9.9-1.1-6.7-1.1-6.8 3.5-10.1l2.9-4.6z"/>
					<path id="&lt;Path&gt;" class="s13" d="m1589.9 1073.4c5.1 1 10.7 0.6 10.7 0.6 0 0 15.3-47.3 17.3-51.6 2-4.3 45.5-55.5 45.5-55.5l-18.1-45.3c0 0-47.1 78.6-51.9 89.6-7.9 18.3-10.6 59.2-10.6 59.2 0 0 3 2.2 7.1 3z"/>
					<path id="&lt;Path&gt;" class="s13" d="m1651.3 897.1c0 0 2.2-4.4 1.8-8.3-0.5-3.9-0.5-8.9 2.7-8 3.1 0.9 3.3 3.5 4.6 2 1.3-1.5 1.3-7.7 10.7-8.1 9.4-0.5 13.2 2.8 17.6 0.9 4.3-1.9 4.5-8.5 4.5-8.5q0 0 0 0c-0.8 1.5-3.1 1.2-3.6-0.5-0.7-3.1-2.7-7.7-7.7-11.7-8.4-6.9-13.6-1.2-18.5-0.9-10.7 0.7-23.2 13.7-24.6 21.5-2.6 14.3 11.3 18 12.5 21.6z"/>
					<path id="&lt;Path&gt;" class="s2" d="m1593 1075.2c0 0 3.1 3.2 3.3 4.6 0.6 4.3 2 6.1 1.3 6.6-1.5 1-3.5-2.2-4.4-5.1-1-2.8-0.2-6.1-0.2-6.1z"/>
				</g>
				<g id="&lt;Group&gt;">
					<g id="&lt;Group&gt;">
						<path id="&lt;Path&gt;" class="s51" d="m1686.6 867.1c-5.6 3.8-13.1 7.8-21.4 11.5-6.9 3-13.5 5.4-19.2 7-10.5 2.9-18 3.3-19 0.4-1.2-3.2 6-9.6 17.5-16.2 4.4-2.5 9.5-5.1 14.9-7.5 6.1-2.6 11.9-4.8 17.1-6.3 11.6-3.6 20.1-4.2 21.2-1.1 0.9 2.6-3.5 7.2-11.1 12.2z"/>
						<path id="&lt;Path&gt;" class="s9" d="m1686.5 866.5c-5.6 3.8-13 7.8-21.4 11.5-6.9 3-13.5 5.4-19.2 7-10.5 2.9-18 3.3-19 0.4-1.2-3.2 6.1-9.6 17.5-16.2 4.4-2.5 9.5-5.1 15-7.5 6-2.6 11.8-4.8 17-6.3 11.6-3.6 20.1-4.2 21.2-1.1 0.9 2.6-3.5 7.2-11.1 12.2z"/>
					</g>
					<path id="&lt;Path&gt;" class="s17" d="m1684.6 858.6c1.1 1.7 0.5 4.2-1.1 5.1-6.5 3.6-14.6 7.3-23.4 10.5-5.6 2-11 3.7-16.1 5-4.1 1-8.1-2.4-8.5-7.3-0.3-4.1-0.3-8.4 0.3-12 0.7-3.9 2.3-6.9 5.2-7.9 10.8-3.4 17.1-9.6 23.3-12.1 2.6-1 6.6 1.8 10.7 6.1 3.5 3.6 7 8.3 9.6 12.6z"/>
				</g>
			</g>
			<g id="&lt;Group&gt;">
				<path id="&lt;Path&gt;" class="s4" d="m1490.8 1219c0 0-17.8-32.3-1.4-46.6 16.3-14.3 45-5.8 50.3 0 5.3 5.8 12.4 22.1-2.2 45.4z"/>
				<path id="&lt;Path&gt;" class="s10" d="m1455.4 1734.9c0 0 0-8.9 1.2-11.9 1.3-3 6-15.1 6-15.1h18.3c0 0 3.4 11.1 3.6 14.7 0.2 3.6 0 12.3 0 12.3z"/>
				<path id="&lt;Path&gt;" class="s10" d="m1571.5 1734.9c0 0 0-8.9-1.3-11.9-1.2-3-5.9-15.1-5.9-15.1h-18.3c0 0-3.4 11.1-3.6 14.7-0.2 3.6 0 12.3 0 12.3z"/>
				<path id="&lt;Path&gt;" class="s19" d="m1498.2 1232.2c0 0-0.6 20-3.2 28.9l-20.2 14.1 76.1 11.4-18.2-25.1c0 0-5.4-26.7-2.6-36.6 2.9-9.9-31.9 7.3-31.9 7.3z"/>
				<path id="&lt;Path&gt;" class="s20" d="m1498.1 1235c0 0 6 14.5 17.3 14.2 11.4-0.4 14-13.2 14-13.2z"/>
				<path id="&lt;Path&gt;" class="s19" d="m1514.2 1243.6c-8.3-0.2-23.4-11.1-23.4-24.6v-21.2c0-4.9 3.5-8.9 7.7-8.9h31.3c4.2 0 7.7 4 7.7 8.9v20c0 14.2-13.9 25.9-23.3 25.8z"/>
				<path id="&lt;Path&gt;" class="s21" d="m1457.6 1424.8c0 0 3.2 97.7-1.5 153.5-4.8 55.7 0 133.3 0 133.3 0 0 15.3 8.5 31.9 0 0 0 18.2-107.7 18.1-133.3-0.1-27.3 19.8-149.3 19.8-149.3z"/>
				<path id="&lt;Path&gt;" class="s21" d="m1570.8 1711.6c0 0-15.3 8.5-31.8 0 0 0-18.2-107.7-18.1-133.3 0-11.6-3.5-40-7.6-69-5.6-39.6-12.2-80.3-12.2-80.3l70.8-4.4c0 0-5.8 97.9-1 153.7 4.8 55.7-0.1 133.3-0.1 133.3z"/>
				<path id="&lt;Path&gt;" class="s52" d="m1571.1 1441c0 0-30.2 5.9-57.8 5.9-12 0-25.1-1.3-35.5-2.7-11.5-1.6-19.7-3.2-19.7-3.2 0 0-6.1 0.6-2.5-29.6 2.7-23 1.9-43.8 1.2-65.1 0-2.4 0-5.2 0.2-8.3 1.1-24.9 8.7-69.8 14.4-72.2 0 0 8.5-3.1 23.6-4.7 0 0.3 8.8 13.1 19.2 14.5 6.4-2.5 11.5-4.7 18.5-14.1 9 1.1 18.7 2.9 29.1 5.7 0 0 1.1 4.7 5.2 87.1 1.7 32.6 12.8 86.8 4.1 86.7z"/>
				<path id="&lt;Path&gt;" class="s14" d="m1520.9 1578.3c0-11.6-3.5-40-7.6-69 4.3-17.3 14.6-33.9 14.6-33.9 13.1 36.7-7 102.9-7 102.9z"/>
				<path id="&lt;Path&gt;" class="s52" d="m1428.9 1363.9c-0.7 0.6 1.8 6.8 5.5 14.9 7.6 16.7 20.3 41.3 20.3 41.3-1.8 7-3.9 11.3-3.9 11.3-21.2-16.7-35-31-43.7-41.9-12.3-15.3-14.9-24.1-14.9-24.1 47.4-96.5 80.8-100.1 80.8-100.1l-4 63.8c0 0-37.9 33-40.1 34.8z"/>
				<path id="&lt;Path&gt;" class="s19" d="m1452.2 1421.4c0 0 11.5-10.7 16.1-4.7 4.7 5.9 5.6 15.3 1.9 14.7-3.6-0.7-11-4.1-12.1-2.4-1 1.7-5.8 5-7.3 2.4-1.4-2.6 1.4-10 1.4-10z"/>
				<path id="&lt;Path&gt;" class="s19" d="m1454.7 1420.1c-1.8 7-3.9 11.3-3.9 11.3-21.2-16.7-35-31-43.7-41.9 6.6-0.5 16.2-2.8 27.3-10.7 7.6 16.7 20.3 41.3 20.3 41.3z"/>
				<path id="&lt;Path&gt;" class="s52" d="m1637.8 1365.4c0 0-2.6 8.8-14.9 24.1-8.7 10.9-22.5 25.2-43.8 41.9 0 0-2-4.3-3.8-11.3 0 0 12.7-24.6 20.3-41.3 3.7-8.1 6.2-14.3 5.5-14.9-1.7-1.4-24.9-21.6-35.2-30.5-3-2.6-5-4.3-5-4.3l-2.3-62.8c0 0 31.8 2.6 79.2 99.1z"/>
				<path id="&lt;Path&gt;" class="s19" d="m1577.8 1421.4c0 0-11.5-10.7-16.1-4.7-4.7 5.9-5.6 15.3-2 14.7 3.7-0.7 11.1-4.1 12.2-2.4 1 1.7 5.8 5 7.2 2.4 1.5-2.6-1.3-10-1.3-10z"/>
				<path id="&lt;Path&gt;" class="s19" d="m1575.3 1420.1c1.8 7 3.8 11.3 3.8 11.3 21.3-16.7 35.1-31 43.8-41.9-6.6-0.5-16.2-2.8-27.3-10.7-7.6 16.7-20.3 41.3-20.3 41.3z"/>
				<path id="&lt;Path&gt;" class="s4" d="m1490.8 1206.4c0 0 5.7-17.4 24.4-14.7 18.7 2.7 20.3 6.7 22.3 11.4 1.9 4.6 5.8-17 5.8-17l-22-6.5c0 0-26.7 3-28.6 7.5-1.9 4.5-1.9 4.5-1.9 4.5z"/>
				<path id="&lt;Path&gt;" class="s4" d="m1512.6 1172.8c0 0-19.7-18-11.2-21.8 8.4-3.8 11.2 21.8 11.2 21.8z"/>
				<path id="&lt;Path&gt;" class="s4" d="m1511.8 1173.2c0 0-24.9-9.4-18.5-16 6.5-6.7 18.5 16 18.5 16z"/>
				<path id="&lt;Path&gt;" class="s4" d="m1513.5 1173.8c0 0-4.1-23.2 5.7-23 9.9 0.2-5.7 23-5.7 23z"/>
				<path id="&lt;Path&gt;" class="s4" d="m1514.8 1172.2c0 0 10.7-24.8 20.7-22.5 9.9 2.3-20.7 22.5-20.7 22.5z"/>
				<path id="&lt;Path&gt;" class="s4" d="m1514.3 1173.8c0 0 17-21.1 25.9-16.2 9 4.9-25.9 16.2-25.9 16.2z"/>
			</g>
			<g id="&lt;Group&gt;">
				<path id="&lt;Path&gt;" class="s4" d="m1070.2 1293.9c0 0-28.3-3.7-37.3 25.9-6.9 22.6-21.8 34.5-21.3 58.4 0.4 23.9 5.1 23.9 0 36.7-5.1 12.8 7.2 25.6 20 25.6 12.8 0 76.5-20.3 78.8-32.3 2.3-12.1-8.6-34.2-4.8-43.2 3.9-9-5.4-22.6-3.2-41.8 1.4-11.5-8.5-31.8-32.2-29.3z"/>
				<path id="&lt;Path&gt;" class="s2" d="m1030 1538.2c16.9-54.2-1.7-66 0.1-93.1 1.8-27.1 22.8-56.2 22.8-56.2 0 0 1-0.1 2.8-0.3 1.4-0.7 1.8-6.6 1.8-12.9 0-7.4-0.6-15.3-0.6-15.3l6.9-1.4 18.3-3.6 1.5-0.3c0 4.1 0.2 8 0.7 11.4 0.7 6.2 2.1 11.2 3.6 14.8 1.6 3.6 3.3 5.7 4.6 6 11.9 2.5 31.2 38.4 26.2 71.7-0.6 4.2-1.6 8.4-3.1 12.5-6.2 17.2-9.4 24.2-9.3 30.8 0.2 8.2 5.8 15.6 17.5 41.8 6.4 14.5-111.1 49.4-93.8-5.9z"/>
				<path id="&lt;Path&gt;" class="s23" d="m1094.3 1795.6c-8.4 33.4-21 58.9-21 58.9l-11-0.7c0 0 5.4-25.7 5.1-60.3-0.3-24.2-3.3-52.8-12.8-80.2-32.9-93.9-27.6-162.2-27.6-162.2l61.8 7.2 2.9 0.3c0.3 28.4 1 67 1.7 97.1 0.5 27.2 1 47.5 1 47.5 11.9 25.6 7.6 61.7-0.1 92.4z"/>
				<path id="&lt;Path&gt;" class="s2" d="m1034.6 1398c0 0-10.8 1.8-13 10.4-4.8 19.4-3.2 72.7-8 89.2-4.8 16.5-18.5 57.6-20.6 66.1 0 0 5.7 3.6 9 2.3 1.9-0.8 34.3-56.7 37.7-64.9 3.5-8.3-5.1-103.1-5.1-103.1z"/>
				<path id="&lt;Path&gt;" class="s2" d="m1167.1 1572l-10 3c0 0-33-54.8-36-69-1-4.7-3.4-14-6.2-24.4-5.8-21.5-13.2-47.8-13.2-47.8l-2.5-10.7-8.4-36.4c0 0 16.1 1.6 25.5 5.6 3.1 1.3 5.5 2.8 6.3 4.7 6.9 15.2 13.8 53.5 18.7 80.9 2.7 15.2 4.7 27.1 5.8 29.6 3 7 12.2 45.5 20 64.5z"/>
				<g id="&lt;Group&gt;">
					<path id="&lt;Path&gt;" class="s22" d="m1169.7 1786.9c2.7 38-8.7 64.8-8.7 64.8l-4.5 4.6c0 0-9.3-25.5-18.1-56.3-8.3-29.3-18.1-60.1-24.8-68.8-26.7-34.8-57-178-57-178l61.3-13.4c8 9.4 13.5 26.1 17.5 45.5 9.8 48.9 9 115 8.8 124.6q0 0 0 0c0 0.7 0.3 1.4 0.8 2 16.4 22.3 22.8 49.9 24.7 75z"/>
					<path id="&lt;Path&gt;" class="s2" d="m1169.7 1786.9c2.7 38-8.7 64.8-8.7 64.8l-4.4 5.7c0 0-9.4-26.6-18.2-57.4 3.7-0.4 20-2.5 31.3-13.1z"/>
				</g>
				<path id="&lt;Path&gt;" class="s2" d="m1094.3 1795.6c-8.4 33.4-21 58.9-21 58.9l-11-0.7c0 0 5.4-25.7 5.1-60.3 3.7 1.9 11.4 3.8 26.9 2.1z"/>
				<g id="&lt;Group&gt;">
					<path id="&lt;Path&gt;" class="s10" d="m1164.7 1864.6h-7c-2.4-0.3-4.1-1-6.5-1.3-3.7-0.5-5.4 1-5.7 1.3q-0.1 0.1-0.1 0.1h-29.8c-0.7-1.1 0-3.5 0.7-5.4 0.5-1.2 1.5-2.1 2.8-2.5 3.2-0.9 9.4-1.7 15.1-6.9 3.2-2.9 15.5-10.7 15.5-10.7h0.1c0.2 0 1.5 0.4 7.1 5.1 2.9 2.5 7.8-3.4 7.8-3.4 0 0 1 0.7 1.6 2.2 0.6 1.1 1 2.6 0.7 4.5-0.5 2.7 1 7.7 2.1 11.1 0.7 2 1.3 3.5 1.3 3.5 0 0 0.3 1.7-5.7 2.4z"/>
					<path id="&lt;Path&gt;" class="s16" d="m1166.3 1843.1c-1.6 1.2-5.2 3.5-7.5 3.8-3.2 0.4-9.1-7.7-9.1-7.7h0.1c0.2 0 1.5 0.4 7.1 5.1 2.9 2.5 7.8-3.4 7.8-3.4 0 0 1 0.7 1.6 2.2z"/>
					<path id="&lt;Path&gt;" class="s16" d="m1143.7 1862.8c1.3-1 5.5-2.8 11.2-1.4 5 1.2 12.4-1.9 14.2-2.7 0.7 2 1.3 3.5 1.3 3.5 0 0 0.3 1.7-5.7 2.4h-7c-2.4-0.3-4.1-1-6.5-1.3-3.7-0.5-5.4 1-5.7 1.3q-0.1 0.1-0.1 0.1h-29.8c-0.7-1.1 0-3.5 0.7-5.4 0.9-0.8 1.2 3.5 1.7 4.2z"/>
				</g>
				<g id="&lt;Group&gt;">
					<path id="&lt;Path&gt;" class="s10" d="m1079.2 1864.6h-7c-2.4-0.3-4.1-1-6.5-1.3-3.7-0.5-5.3 1-5.7 1.3q0 0.1 0 0.1h-29.8c-0.8-1.1-0.1-3.5 0.6-5.4 0.5-1.2 1.5-2.1 2.8-2.5 3.2-0.9 9.4-1.7 15.1-6.9 3.2-2.9 15.5-10.7 15.5-10.7h0.1c0.2 0 1.5 0.4 7.1 5.1 2.9 2.5 7.8-3.4 7.8-3.4 0 0 1 0.7 1.7 2.2 0.5 1.1 0.9 2.6 0.6 4.5-0.4 2.7 1 7.7 2.1 11.1 0.7 2 1.3 3.5 1.3 3.5 0 0 0.3 1.7-5.7 2.4z"/>
					<path id="&lt;Path&gt;" class="s16" d="m1080.9 1843.1c-1.7 1.2-5.3 3.5-7.6 3.8-3.2 0.4-9.1-7.7-9.1-7.7h0.1c0.2 0 1.5 0.4 7.1 5.1 2.9 2.5 7.8-3.4 7.8-3.4 0 0 1 0.7 1.7 2.2z"/>
					<path id="&lt;Path&gt;" class="s16" d="m1058.2 1862.8c1.3-1 5.5-2.8 11.2-1.4 5 1.2 12.4-1.9 14.2-2.7 0.7 2 1.3 3.5 1.3 3.5 0 0 0.3 1.7-5.7 2.4h-7c-2.4-0.3-4.1-1-6.5-1.3-3.7-0.5-5.3 1-5.7 1.3q0 0.1 0 0.1h-29.8c-0.8-1.1-0.1-3.5 0.6-5.4 0.9-0.8 1.2 3.5 1.7 4.2z"/>
				</g>
				<path id="&lt;Path&gt;" class="s50" d="m1087.9 1381.3c-11.9-0.4-31-20.9-31-20.9 2-1.1 4.3-1.5 6.9-1.4 6.5 0.2 14.4 3.5 20.5 7.5 0.7 6.2 2.1 11.2 3.6 14.8z"/>
				<path id="&lt;Path&gt;" class="s2" d="m1090.9 1368.9c0 0-32.7 6.5-36.5-13.9-3.7-20.4-10.5-33.3 10.3-38.4 20.7-5 26.2 2.1 29.1 8.6 2.9 6.5 5.5 41.5-2.9 43.7z"/>
				<path id="&lt;Path&gt;" class="s4" d="m1080.6 1310c0 0 1.8 12.3-10.6 25.1-12.4 12.8-10.1 28.7-12.5 37.2-2.4 8.5-27.1 15.5-29.3 20.5 0 0 2.6-19.8 10.7-33.8 8.1-14.1 0.8-27.3 8.1-40.5 7.2-13.2 31-12.8 33.6-8.5z"/>
				<path id="&lt;Path&gt;" class="s2" d="m995.4 1563c0 0-11.1 10.5-12.5 14.7-1.4 4.1-0.5 14.3 0 15.6 0.5 1.3 6.8-4 8.7-7 1.9-3 5.2-9 5.2-6 0 3-0.9 6.2 1.5 5.3 2.4-1 4.1-18.4 4.1-18.4z"/>
				<path id="&lt;Path&gt;" class="s2" d="m1164 1568.4c0 0 11.1 10.4 12.5 14.6 1.4 4.1 0.5 14.3 0 15.6-0.5 1.3-6.8-4-8.7-7-1.9-3-5.2-9-5.2-6 0 3 0.9 6.2-1.5 5.3-2.4-1-4.1-18.4-4.1-18.4z"/>
				<path id="&lt;Path&gt;" class="s17" d="m1115.1 1482.8c3.7 1 15.6 3.2 29.3-4.3-5.6-27.6-13.7-66.2-21.7-81.5-0.4-0.8-1.1-1.4-2-2.1q0.1-0.1 0.1-0.1c-7.5-5.5-22.9-7.2-22.9-7.2 0 0-4.8 21.1-7.8 23.9-3 2.7-46.5 7.2-47.5 2.2-0.9-4.8 11.3-23.3 12.2-25 0.1-0.1-1.9 0.2-1.9 0.2 0 0-21.3 1.6-27.7 7.2-9.5 8.3-15.3 74-14.8 75.8 0.4 1.6 4 7 13.1 7-3.4 26.4-8.8 58.4-5.9 78.9 3.5 25.7 57.7 19.1 68.4 16.7 7.4-1.6 13.1-9.4 17.1-23.2 1.4 9.7 4.4 21 11.2 21.7 11 1.2 15.6-0.7 17-4.9 0.3-1.2 0.4-2.9 0.3-5.1-0.7-14.4-11.7-48.5-16.5-80.2z"/>
			</g>
			<g id="&lt;Group&gt;">
				<path id="&lt;Path&gt;" class="s10" d="m781.5 1814.3c0 0 0-8.8 1.3-11.8 1.2-2.9 5.8-14.9 5.8-14.9h18.1c0 0 3.3 10.9 3.5 14.5 0.3 3.6 0 12.2 0 12.2z"/>
				<path id="&lt;Path&gt;" class="s10" d="m896 1814.3c0 0 0-8.8-1.2-11.8-1.3-2.9-5.9-14.9-5.9-14.9h-18c0 0-3.4 10.9-3.6 14.5-0.2 3.6 0 12.2 0 12.2z"/>
				<path id="&lt;Path&gt;" class="s2" d="m823.8 1318.6c0 0-0.7 19.7-3.2 28.5l-19.9 13.9 75 11.2-17.9-24.7c0 0-5.4-26.3-2.6-36.1 2.9-9.7-31.4 7.2-31.4 7.2z"/>
				<path id="&lt;Path&gt;" class="s5" d="m823.7 1321.4c0 0 5.9 14.2 17.1 13.9 11.1-0.3 13.7-12.9 13.7-12.9z"/>
				<path id="&lt;Path&gt;" class="s4" d="m817 1309.8c0 0-3.6-18-6.1-23.5-2.5-5.4-4.6-29.7 23.3-31 0 0 10.7 1.3 16.5-2.3 0 0 0 3.6-1.4 4.8 0 0 9.6-2.3 17.2 6.1 7.5 8.4-5.1 37.8-4.4 44.7z"/>
				<path id="&lt;Path&gt;" class="s2" d="m862.5 1284.7v19.7c0 3.2-0.8 6.4-2.1 9.3-2.2 5-5.9 9.3-10 12.1-3.7 2.6-7.6 4.1-10.9 4-2.9-0.1-6.7-1.5-10.4-3.9-4.9-3.3-9.6-8.3-11.6-14.3v-0.1l-0.1-0.3c-0.6-1.8-0.9-3.7-0.9-5.7v-20.8c0-4.9 3.4-8.8 7.5-8.8h30.9c4.2 0 7.6 3.9 7.6 8.8z"/>
				<path id="&lt;Path&gt;" class="s4" d="m816.5 1295.8c0 0 0-12.5 10-14.4 9.9-1.9 32 6.1 35.2-3 3.1-9.1-42.9-9-45.2-3.2-2.3 5.9 0 20.6 0 20.6z"/>
				<path id="&lt;Path&gt;" class="s13" d="m783.8 1508.5c0 0 3.1 96.3-1.6 151.3-4.7 55 0 131.5 0 131.5 0 0 15.1 8.4 31.5 0 0 0 17.9-106.2 17.8-131.5-0.1-26.9 19.6-147.1 19.6-147.1z"/>
				<path id="&lt;Path&gt;" class="s13" d="m895.4 1791.3c0 0-15.1 8.4-31.5 0 0 0-17.9-106.2-17.8-131.5 0.1-11.3-3.4-39.4-7.4-67.9-5.6-39.1-12.1-79.2-12.1-79.2l69.9-4.4c0 0-5.8 96.5-1.1 151.5 4.7 55 0 131.5 0 131.5z"/>
				<path id="&lt;Path&gt;" class="s17" d="m895.6 1524.5c0 0-29.8 5.8-56.9 5.8-11.9 0-24.8-1.3-35-2.7-11.4-1.5-19.5-3.1-19.5-3.1 0 0-6 0.5-2.5-29.2 2.7-22.7 1.9-43.2 1.3-64.2-0.1-2.4 0-5.1 0.1-8.2 1.2-24.6 8.6-68.8 14.2-71.1 0 0 8.5-3.2 23.3-4.7 0 0.3 8.7 12.9 18.9 14.3 6.4-2.5 11.3-4.6 18.3-13.9 8.8 1.1 18.4 2.8 28.7 5.6 0 0 1.1 4.6 5.1 85.9 1.6 32.1 12.6 85.6 4 85.5z"/>
				<path id="&lt;Path&gt;" class="s10" d="m846.1 1659.8c0.1-11.3-3.4-39.4-7.4-67.9 4.1-17.1 14.3-33.5 14.3-33.5 12.9 36.2-6.9 101.4-6.9 101.4z"/>
				<path id="&lt;Path&gt;" class="s17" d="m755.4 1448.5c-0.7 0.5 1.8 6.7 5.5 14.7 7.5 16.4 20 40.7 20 40.7-1.8 6.9-3.8 11.1-3.8 11.1-21-16.5-34.6-30.5-43.2-41.3-12.1-15.1-14.6-23.8-14.6-23.8 46.7-95.1 79.6-98.6 79.6-98.6l-3.9 62.8c0 0-37.4 32.6-39.6 34.4z"/>
				<path id="&lt;Path&gt;" class="s2" d="m778.4 1505.1c0 0 11.3-10.5 15.9-4.6 4.6 5.9 5.5 15.1 1.9 14.5-3.6-0.7-10.9-4-12-2.3-1 1.6-5.7 4.8-7.1 2.3-1.5-2.5 1.3-9.9 1.3-9.9z"/>
				<path id="&lt;Path&gt;" class="s2" d="m780.9 1503.9c-1.8 6.9-3.8 11.1-3.8 11.1-21-16.5-34.6-30.5-43.2-41.3 6.5-0.5 16-2.8 27-10.5 7.5 16.4 20 40.7 20 40.7z"/>
				<path id="&lt;Path&gt;" class="s17" d="m961.4 1449.9c0 0-2.5 8.7-14.7 23.8-8.6 10.8-22.1 24.8-43.1 41.3 0 0-2-4.2-3.8-11.1 0 0 12.5-24.3 20-40.7 3.6-8 6.1-14.2 5.4-14.7-1.7-1.4-24.5-21.3-34.7-30.1-3-2.6-4.9-4.3-4.9-4.3l-2.3-61.9c0 0 31.3 2.6 78.1 97.7z"/>
				<path id="&lt;Path&gt;" class="s2" d="m902.3 1505.1c0 0-11.4-10.5-16-4.6-4.6 5.9-5.4 15.1-1.9 14.5 3.6-0.7 11-4 12-2.3 1.1 1.6 5.7 4.8 7.2 2.3 1.4-2.5-1.3-9.9-1.3-9.9z"/>
				<path id="&lt;Path&gt;" class="s2" d="m899.8 1503.9c1.8 6.9 3.8 11.1 3.8 11.1 21-16.5 34.5-30.5 43.1-41.3-6.5-0.5-16-2.8-26.9-10.5-7.5 16.4-20 40.7-20 40.7z"/>
			</g>
		</g>
	</g>
</svg>